<svg width="22" height="20" viewBox="0 0 22 20" fill="none" xmlns="http://www.w3.org/2000/svg">
<path d="M3.68323 18.8136C3.68323 19.3659 4.13094 19.8136 4.68323 19.8136C5.23551 19.8136 5.68323 19.3659 5.68323 18.8136H3.68323ZM3.30445 5.08284C2.03101 5.08284 1.17806 5.92309 0.696225 6.84294C0.216678 7.75842 0.00295878 8.90749 3.05755e-05 9.99732C-0.00289673 11.0868 0.204528 12.2379 0.683734 13.1558C1.16729 14.0821 2.02476 14.9172 3.30446 14.9172V12.9172C3.03734 12.9172 2.73996 12.7729 2.45669 12.2303C2.16907 11.6793 1.99769 10.8718 2.00002 10.0027C2.00236 9.13393 2.17797 8.32442 2.46788 7.77097C2.7555 7.22188 3.05213 7.08284 3.30445 7.08284V5.08284ZM3.30445 7.08284C7.32657 7.08284 9.88448 6.44936 12.0466 5.46241C13.1107 4.9767 14.0596 4.41399 15.0042 3.83817C15.9576 3.25704 16.9044 2.66399 18.0217 2.06904L17.0817 0.30372C15.9002 0.932891 14.8925 1.56397 13.9632 2.13044C13.0252 2.70223 12.1634 3.21061 11.2161 3.64299C9.35573 4.49221 7.08885 5.08284 3.30445 5.08284V7.08284ZM17.0817 19.6963C17.5126 19.9257 17.9862 20.0437 18.4779 19.9852C18.9686 19.9269 19.3838 19.7041 19.7185 19.4116C20.3536 18.8564 20.7825 17.9792 21.0869 17.0633C21.7093 15.1906 22 12.5611 22 9.99999C22 7.4389 21.7093 4.80934 21.0869 2.93665C20.7825 2.02079 20.3536 1.1436 19.7185 0.588416C19.3838 0.295876 18.9686 0.073086 18.4779 0.0147715C17.9862 -0.0436729 17.5126 0.0742601 17.0817 0.30372L18.0217 2.06904C18.1655 1.99247 18.2307 1.99947 18.2419 2.00079C18.2541 2.00225 18.3058 2.00993 18.4022 2.09419C18.6292 2.2926 18.9187 2.75428 19.189 3.56748C19.7159 5.15291 20 7.54222 20 9.99999C20 12.4578 19.7159 14.8471 19.189 16.4325C18.9187 17.2457 18.6292 17.7074 18.4022 17.9058C18.3058 17.9901 18.2541 17.9977 18.2419 17.9992C18.2307 18.0005 18.1655 18.0075 18.0217 17.931L17.0817 19.6963ZM3.30446 14.9172C3.84355 14.9172 4.18546 14.8862 4.61662 14.9149L4.74984 12.9194C4.24151 12.8855 3.65242 12.9172 3.30446 12.9172V14.9172ZM4.68323 14.9172C9.87249 14.9172 12.302 17.1512 17.0817 19.6963L18.0217 17.931C13.606 15.5796 10.5241 12.9172 4.68323 12.9172V14.9172ZM3.68323 13.9172V18.8136H5.68323V13.9172H3.68323Z" fill="white" fill-opacity="0.3"/>
</svg>
