<svg width="18" height="20" viewBox="0 0 18 20" fill="none" xmlns="http://www.w3.org/2000/svg">
<path fill-rule="evenodd" clip-rule="evenodd" d="M9.00114 0C12.3284 0 15.0341 2.27135 15.0341 5.06334C15.0341 7.85532 12.3284 10.1257 9.00114 10.1257H8.96477C5.64432 10.1171 2.95455 7.84484 2.96587 5.06048C2.96587 2.27135 5.67273 0 9.00114 0ZM9.00114 1.36167C6.56818 1.36167 4.58861 3.02179 4.58861 5.06334C4.58068 7.09821 6.54546 8.75738 8.96818 8.76501L9.00114 9.44584V8.76501C11.433 8.76501 13.4114 7.10393 13.4114 5.06334C13.4114 3.02179 11.433 1.36167 9.00114 1.36167Z" fill="white" fill-opacity="0.3"/>
<path fill-rule="evenodd" clip-rule="evenodd" d="M0 15.4221C0 12.3434 4.92994 11.9319 8.76305 11.9164L9.27753 11.9161C11.7382 11.9211 18 12.0515 18 15.4412V19C18 19.5523 17.5523 20 17 20H1C0.447715 20 0 19.5523 0 19V15.4221ZM1.70455 15.4221C1.70455 14.0442 4.15909 13.3462 9.00114 13.3462C13.842 13.3462 16.2955 14.0509 16.2955 15.4412V17.5C16.2955 18.0523 15.8477 18.5 15.2955 18.5H2.70455C2.15226 18.5 1.70455 18.0523 1.70455 17.5V15.4221Z" fill="white" fill-opacity="0.3"/>
</svg>
