<svg width="88" height="78" viewBox="0 0 88 78" fill="none" xmlns="http://www.w3.org/2000/svg">
<g filter="url(#filter0_d_154_125)">
<rect width="80" height="70" rx="10" fill="url(#paint0_linear_154_125)"/>
</g>
<path d="M37 12H16L30.7 28L16 44H37" stroke="white" stroke-width="3" stroke-linecap="round" stroke-linejoin="round"/>
<path d="M42 12H63.2658L42 44H66M45.2658 28H60.076" stroke="white" stroke-width="3" stroke-linecap="round" stroke-linejoin="round"/>
<path d="M18.1855 59.7617C18.1855 59.4297 18.0684 59.1758 17.834 59C17.5996 58.8203 17.1777 58.6328 16.5684 58.4375C15.959 58.2383 15.4766 58.043 15.1211 57.8516C14.1523 57.3281 13.668 56.623 13.668 55.7363C13.668 55.2754 13.7969 54.8652 14.0547 54.5059C14.3164 54.1426 14.6895 53.8594 15.1738 53.6562C15.6621 53.4531 16.209 53.3516 16.8145 53.3516C17.4238 53.3516 17.9668 53.4629 18.4434 53.6855C18.9199 53.9043 19.2891 54.2148 19.5508 54.6172C19.8164 55.0195 19.9492 55.4766 19.9492 55.9883H18.1914C18.1914 55.5977 18.0684 55.2949 17.8223 55.0801C17.5762 54.8613 17.2305 54.752 16.7852 54.752C16.3555 54.752 16.0215 54.8438 15.7832 55.0273C15.5449 55.207 15.4258 55.4453 15.4258 55.7422C15.4258 56.0195 15.5645 56.252 15.8418 56.4395C16.123 56.627 16.5352 56.8027 17.0781 56.9668C18.0781 57.2676 18.8066 57.6406 19.2637 58.0859C19.7207 58.5312 19.9492 59.0859 19.9492 59.75C19.9492 60.4883 19.6699 61.0684 19.1113 61.4902C18.5527 61.9082 17.8008 62.1172 16.8555 62.1172C16.1992 62.1172 15.6016 61.998 15.0625 61.7598C14.5234 61.5176 14.1113 61.1875 13.8262 60.7695C13.5449 60.3516 13.4043 59.8672 13.4043 59.3164H15.168C15.168 60.2578 15.7305 60.7285 16.8555 60.7285C17.2734 60.7285 17.5996 60.6445 17.834 60.4766C18.0684 60.3047 18.1855 60.0664 18.1855 59.7617ZM27.2223 58.9941V62H25.4645V53.4688H28.7927C29.4333 53.4688 29.9958 53.5859 30.4802 53.8203C30.9684 54.0547 31.3434 54.3887 31.6052 54.8223C31.8669 55.252 31.9977 55.7422 31.9977 56.293C31.9977 57.1289 31.7106 57.7891 31.1364 58.2734C30.5661 58.7539 29.7751 58.9941 28.7634 58.9941H27.2223ZM27.2223 57.5703H28.7927C29.2575 57.5703 29.611 57.4609 29.8532 57.2422C30.0993 57.0234 30.2223 56.7109 30.2223 56.3047C30.2223 55.8867 30.0993 55.5488 29.8532 55.291C29.6071 55.0332 29.2673 54.9004 28.8337 54.8926H27.2223V57.5703ZM42.6634 58.3027H39.2884V60.5879H43.2494V62H37.5306V53.4688H43.2377V54.8926H39.2884V56.9258H42.6634V58.3027ZM53.417 60.2422H50.335L49.7491 62H47.8799L51.0557 53.4688H52.6846L55.878 62H54.0088L53.417 60.2422ZM50.8096 58.8184H52.9424L51.8702 55.625L50.8096 58.8184ZM63.6667 58.5781L62.7527 59.5625V62H60.9948V53.4688H62.7527V57.3359L63.5261 56.2754L65.6999 53.4688H67.862L64.8327 57.2598L67.9499 62H65.8581L63.6667 58.5781Z" fill="white"/>
<defs>
<filter id="filter0_d_154_125" x="0" y="0" width="88" height="78" filterUnits="userSpaceOnUse" color-interpolation-filters="sRGB">
<feFlood flood-opacity="0" result="BackgroundImageFix"/>
<feColorMatrix in="SourceAlpha" type="matrix" values="0 0 0 0 0 0 0 0 0 0 0 0 0 0 0 0 0 0 127 0" result="hardAlpha"/>
<feOffset dx="4" dy="4"/>
<feGaussianBlur stdDeviation="2"/>
<feColorMatrix type="matrix" values="0 0 0 0 0 0 0 0 0 0 0 0 0 0 0 0 0 0 0.25 0"/>
<feBlend mode="normal" in2="BackgroundImageFix" result="effect1_dropShadow_154_125"/>
<feBlend mode="normal" in="SourceGraphic" in2="effect1_dropShadow_154_125" result="shape"/>
</filter>
<linearGradient id="paint0_linear_154_125" x1="5.33333" y1="3.23077" x2="77.3851" y2="65.0099" gradientUnits="userSpaceOnUse">
<stop offset="0.239583" stop-color="#5481C5"/>
<stop offset="0.661458" stop-color="#7A5A9A"/>
</linearGradient>
</defs>
</svg>
