<svg width="22" height="20" viewBox="0 0 22 20" fill="none" xmlns="http://www.w3.org/2000/svg">
<path fill-rule="evenodd" clip-rule="evenodd" d="M11.0018 0C13.9425 0 16.7061 1.03936 18.7819 2.92733C23.0727 6.82795 23.0727 13.1739 18.7819 17.0745C16.6785 18.9876 13.8463 20 10.9772 20C9.41318 20 7.83893 19.6995 6.36602 19.0797C5.93203 18.9216 5.52567 18.7727 5.23395 18.7727C4.89822 18.7745 4.44683 18.916 4.01079 19.0528C3.11619 19.3319 2.00255 19.6799 1.17857 18.9337C0.357673 18.1865 0.736393 17.1769 1.04142 16.3646C1.19188 15.9645 1.34644 15.5513 1.34644 15.2387C1.34644 14.9819 1.21031 14.6543 1.0015 14.1826C-0.915646 10.4187 -0.029236 5.88257 3.22264 2.92826C5.29844 1.04029 8.06105 0 11.0018 0ZM11.0028 1.39574C8.4715 1.39574 6.09375 2.29087 4.30762 3.91551C1.50919 6.45762 0.747652 10.361 2.41095 13.6298C2.65047 14.1686 2.88179 14.6934 2.88179 15.2387C2.88179 15.783 2.67605 16.3311 2.49488 16.8149C2.34544 17.2132 2.11923 17.8143 2.26458 17.9464C2.40686 18.0804 3.07218 17.8692 3.51129 17.7324C4.03842 17.5686 4.63619 17.3807 5.22883 17.3769C5.8225 17.3769 6.3824 17.5816 6.97504 17.7985C10.6056 19.3245 14.8995 18.6303 17.6969 16.0882C21.3879 12.731 21.3879 7.26994 17.6969 3.91458C15.9098 2.28994 13.533 1.39574 11.0028 1.39574ZM15.0427 9.45631C15.6077 9.45631 16.0663 9.87224 16.0663 10.3868C16.0663 10.9014 15.6077 11.3173 15.0427 11.3173C14.4777 11.3173 14.015 10.9014 14.015 10.3868C14.015 9.87224 14.4685 9.45631 15.0335 9.45631H15.0427ZM10.9394 9.45631C11.5044 9.45631 11.963 9.87224 11.963 10.3868C11.963 10.9014 11.5044 11.3173 10.9394 11.3173C10.3744 11.3173 9.91176 10.9014 9.91176 10.3868C9.91176 9.87224 10.3642 9.45631 10.9302 9.45631H10.9394ZM6.83573 9.45631C7.40074 9.45631 7.8593 9.87224 7.8593 10.3868C7.8593 10.9014 7.40074 11.3173 6.83573 11.3173C6.27072 11.3173 5.80807 10.9014 5.80807 10.3868C5.80807 9.87224 6.26151 9.45631 6.82652 9.45631H6.83573Z" fill="white" fill-opacity="0.3"/>
</svg>
