<svg width="18" height="15" viewBox="0 0 18 15" fill="none" xmlns="http://www.w3.org/2000/svg">
<path d="M1 3.36364V2.86364C0.723858 2.86364 0.5 3.08749 0.5 3.36364H1ZM1 14H0.5C0.5 14.2761 0.723858 14.5 1 14.5V14ZM13.2182 14V14.5C13.4943 14.5 13.7182 14.2761 13.7182 14H13.2182ZM13.7182 8.09091C13.7182 7.81477 13.4943 7.59091 13.2182 7.59091C12.942 7.59091 12.7182 7.81477 12.7182 8.09091H13.7182ZM6.80597 8.14236C6.58636 8.30978 6.54404 8.62352 6.71145 8.84313C6.87887 9.06273 7.19261 9.10505 7.41222 8.93764L6.80597 8.14236ZM17 1H17.5C17.5 0.723858 17.2761 0.5 17 0.5V1ZM12.6364 0.5C12.3602 0.5 12.1364 0.723858 12.1364 1C12.1364 1.27614 12.3602 1.5 12.6364 1.5V0.5ZM16.5 4.9C16.5 5.17614 16.7239 5.4 17 5.4C17.2761 5.4 17.5 5.17614 17.5 4.9H16.5ZM9 3.86364C9.27614 3.86364 9.5 3.63978 9.5 3.36364C9.5 3.08749 9.27614 2.86364 9 2.86364V3.86364ZM0.5 3.36364V14H1.5V3.36364H0.5ZM1 14.5H13.2182V13.5H1V14.5ZM12.7182 8.09091V14H13.7182V8.09091H12.7182ZM7.41222 8.93764L17.3031 1.39764L16.6969 0.602363L6.80597 8.14236L7.41222 8.93764ZM17 0.5H12.6364V1.5H17V0.5ZM16.5 1V4.9H17.5V1H16.5ZM1 3.86364H9V2.86364H1V3.86364Z" fill="white" fill-opacity="0.3"/>
</svg>
