<svg width="13" height="13" viewBox="0 0 13 13" fill="none" xmlns="http://www.w3.org/2000/svg">
<path d="M1.42308 7.00769H0.923077C0.923077 7.28383 1.14693 7.50769 1.42308 7.50769V7.00769ZM1.42308 5.14615V4.64615C1.14693 4.64615 0.923077 4.87001 0.923077 5.14615H1.42308ZM3.71978 5.14615V5.64615C3.83441 5.64615 3.94556 5.60677 4.03461 5.53459L3.71978 5.14615ZM3.71978 7.00769L4.03461 6.61926C3.94556 6.54708 3.83441 6.50769 3.71978 6.50769V7.00769ZM8.31319 10.7308L7.99835 11.1192C8.14812 11.2406 8.35432 11.2651 8.52834 11.1821C8.70236 11.0992 8.81319 10.9235 8.81319 10.7308H8.31319ZM8.31319 1.42308H8.81319C8.81319 1.2303 8.70236 1.05469 8.52834 0.971736C8.35432 0.888782 8.14812 0.913258 7.99835 1.03465L8.31319 1.42308ZM12.3536 1.35355C12.5488 1.15829 12.5488 0.841709 12.3536 0.646447C12.1583 0.451184 11.8417 0.451184 11.6464 0.646447L12.3536 1.35355ZM0.646447 11.6464C0.451184 11.8417 0.451184 12.1583 0.646447 12.3536C0.841709 12.5488 1.15829 12.5488 1.35355 12.3536L0.646447 11.6464ZM1.92308 7.00769V5.14615H0.923077V7.00769H1.92308ZM1.42308 5.64615H3.71978V4.64615H1.42308V5.64615ZM1.42308 7.50769H3.71978V6.50769H1.42308V7.50769ZM3.40495 7.39612L7.99835 11.1192L8.62802 10.3423L4.03461 6.61926L3.40495 7.39612ZM4.03461 5.53459L8.62802 1.81151L7.99835 1.03465L3.40495 4.75772L4.03461 5.53459ZM7.81319 1.42308V10.7308H8.81319V1.42308H7.81319ZM11.6464 0.646447L6.14645 6.14645L6.85355 6.85355L12.3536 1.35355L11.6464 0.646447ZM6.14645 6.14645L0.646447 11.6464L1.35355 12.3536L6.85355 6.85355L6.14645 6.14645Z" fill="white" fill-opacity="0.3"/>
</svg>
