<svg width="23" height="22" viewBox="0 0 23 22" fill="none" xmlns="http://www.w3.org/2000/svg">
<path fill-rule="evenodd" clip-rule="evenodd" d="M11.5018 0C14.5762 0 17.4655 1.1433 19.6356 3.22006C24.1215 7.51075 24.1215 14.4913 19.6356 18.782C17.4366 20.8864 14.4756 22 11.4762 22C9.84105 22 8.19525 21.6694 6.65538 20.9877C6.20166 20.8137 5.77684 20.6499 5.47186 20.6499C5.12087 20.652 4.64896 20.8076 4.1931 20.958C3.25783 21.2651 2.09357 21.6479 1.23215 20.827C0.373931 20.0051 0.769866 18.8946 1.08875 18.001C1.24606 17.5609 1.40764 17.1064 1.40764 16.7625C1.40764 16.48 1.26532 16.1198 1.04702 15.6008C-0.957266 11.4606 -0.0305649 6.47083 3.36912 3.22108C5.53928 1.14432 8.42746 0 11.5018 0ZM11.5029 1.53531C8.85657 1.53531 6.37074 2.51996 4.50342 4.30706C1.57779 7.10338 0.781637 11.3971 2.52054 14.9928C2.77094 15.5855 3.01278 16.1627 3.01278 16.7625C3.01278 17.3613 2.79769 17.9642 2.60829 18.4964C2.45205 18.9345 2.21556 19.5957 2.36752 19.741C2.51626 19.8884 3.21182 19.6561 3.67089 19.5056C4.22199 19.3255 4.84692 19.1187 5.46651 19.1146C6.08716 19.1146 6.6725 19.3398 7.29209 19.5783C11.0877 21.2569 15.5768 20.4933 18.5013 17.697C22.3601 14.0041 22.3601 7.99693 18.5013 4.30604C16.6329 2.51894 14.1482 1.53531 11.5029 1.53531ZM15.7265 10.4019C16.3172 10.4019 16.7966 10.8595 16.7966 11.4255C16.7966 11.9915 16.3172 12.449 15.7265 12.449C15.1358 12.449 14.6521 11.9915 14.6521 11.4255C14.6521 10.8595 15.1261 10.4019 15.7168 10.4019H15.7265ZM11.4367 10.4019C12.0274 10.4019 12.5068 10.8595 12.5068 11.4255C12.5068 11.9915 12.0274 12.449 11.4367 12.449C10.846 12.449 10.3623 11.9915 10.3623 11.4255C10.3623 10.8595 10.8353 10.4019 11.427 10.4019H11.4367ZM7.14645 10.4019C7.73714 10.4019 8.21654 10.8595 8.21654 11.4255C8.21654 11.9915 7.73714 12.449 7.14645 12.449C6.55576 12.449 6.07208 11.9915 6.07208 11.4255C6.07208 10.8595 6.54613 10.4019 7.13682 10.4019H7.14645Z" fill="white" fill-opacity="0.3"/>
</svg>
