<svg width="15" height="15" viewBox="0 0 15 15" fill="none" xmlns="http://www.w3.org/2000/svg">
<path fill-rule="evenodd" clip-rule="evenodd" d="M7.50007 1.21619C7.43007 1.21619 7.25776 1.23646 7.16622 1.42942L5.76158 4.38962C5.53927 4.85745 5.1108 5.18258 4.6154 5.25717L1.47073 5.73472C1.26304 5.76635 1.19226 5.9285 1.17073 5.99661C1.15149 6.06228 1.12073 6.22931 1.2638 6.37363L3.53769 8.67628C3.90001 9.04356 4.06462 9.57301 3.97847 10.0911L3.44307 13.3424C3.41 13.5459 3.53077 13.6643 3.58462 13.7048C3.64154 13.7502 3.79385 13.8402 3.98232 13.7364L6.79391 12.2C7.23699 11.9592 7.76469 11.9592 8.20624 12.2L11.0171 13.7356C11.2063 13.8386 11.3586 13.7486 11.4163 13.7048C11.4701 13.6643 11.5909 13.5459 11.5578 13.3424L11.0209 10.0911C10.9347 9.57301 11.0994 9.04356 11.4617 8.67628L13.7356 6.37363C13.8794 6.22931 13.8486 6.06147 13.8286 5.99661C13.8079 5.9285 13.7371 5.76635 13.5294 5.73472L10.3847 5.25717C9.89012 5.18258 9.46165 4.85745 9.23933 4.38881L7.83315 1.42942C7.74238 1.23646 7.57007 1.21619 7.50007 1.21619ZM3.80539 14.9996C3.48769 14.9996 3.1723 14.8942 2.9023 14.6867C2.43613 14.3267 2.20767 13.7324 2.3069 13.134L2.8423 9.88273C2.8623 9.76192 2.82306 9.63949 2.73845 9.55355L0.464559 7.2509C0.0460902 6.82848 -0.103913 6.20417 0.0730137 5.62446C0.251478 5.03826 0.723795 4.61908 1.30611 4.53151L4.45079 4.05396C4.57233 4.03612 4.67694 3.95747 4.72925 3.84558L6.13466 0.884573C6.3939 0.338911 6.91698 0 7.50007 0C8.08316 0 8.60625 0.338911 8.86548 0.884573L10.2717 3.84477C10.3247 3.95747 10.4286 4.03612 10.5494 4.05396L13.694 4.53151C14.2764 4.61908 14.7487 5.03826 14.9271 5.62446C15.1041 6.20417 14.9533 6.82848 14.5348 7.2509L12.2609 9.55355C12.1763 9.63949 12.1378 9.76192 12.1578 9.88192L12.694 13.134C12.7925 13.7332 12.564 14.3275 12.0971 14.6867C11.624 15.0523 11.0078 15.1018 10.4855 14.8148L7.67546 13.2799C7.56546 13.2199 7.43392 13.2199 7.32392 13.2799L4.51386 14.8156C4.28924 14.9388 4.04693 14.9996 3.80539 14.9996Z" fill="white" fill-opacity="0.3"/>
</svg>
