<svg width="15" height="15" viewBox="0 0 15 15" fill="none" xmlns="http://www.w3.org/2000/svg">
<path fill-rule="evenodd" clip-rule="evenodd" d="M5.90775 9.43898L5.99708 9.439L6.19505 9.43955C7.87651 9.44864 11.8155 9.60307 11.8155 12.2284C11.8155 14.6625 8.58045 14.9877 6.06405 15L5.62045 14.9998C3.93899 14.9907 0 14.8363 0 12.2117C0 9.72618 3.37125 9.43898 5.90775 9.43898ZM5.90775 10.5757C2.7345 10.5757 1.125 11.1266 1.125 12.2117C1.125 13.3075 2.7345 13.8637 5.90775 13.8637C9.081 13.8637 10.6905 13.3128 10.6905 12.2284C10.6905 11.1311 9.081 10.5757 5.90775 10.5757ZM12.9031 4.48511C13.2136 4.48511 13.4656 4.73972 13.4656 5.05345L13.4655 6.00394L14.4375 6.00455C14.748 6.00455 15 6.25916 15 6.57289C15 6.88661 14.748 7.14122 14.4375 7.14122L13.4655 7.14062L13.4656 8.09293C13.4656 8.40665 13.2136 8.66127 12.9031 8.66127C12.5926 8.66127 12.3406 8.40665 12.3406 8.09293L12.3405 7.14062L11.37 7.14122C11.0595 7.14122 10.8075 6.88661 10.8075 6.57289C10.8075 6.25916 11.0595 6.00455 11.37 6.00455L12.3405 6.00394L12.3406 5.05345C12.3406 4.73972 12.5926 4.48511 12.9031 4.48511ZM5.90775 0C8.1075 0 9.89625 1.80808 9.89625 4.02991C9.89625 6.25174 8.1075 8.05981 5.90775 8.05981H5.8845C4.82025 8.05602 3.82275 7.63394 3.075 6.87312C2.3265 6.11154 1.91625 5.10066 1.91997 4.02763C1.91997 1.80808 3.70875 0 5.90775 0ZM5.90775 1.13668C4.32975 1.13668 3.04498 2.43477 3.04498 4.02991C3.042 4.80209 3.336 5.52578 3.87225 6.07214C4.40925 6.61775 5.12475 6.9201 5.88675 6.92313L5.90775 7.48465V6.92313C7.4865 6.92313 8.77125 5.62505 8.77125 4.02991C8.77125 2.43477 7.4865 1.13668 5.90775 1.13668Z" fill="white"/>
</svg>
