<svg width="16" height="15" viewBox="0 0 16 15" fill="none" xmlns="http://www.w3.org/2000/svg">
<path fill-rule="evenodd" clip-rule="evenodd" d="M2.38927 13.2738C2.38927 13.2724 2.42986 13.3089 2.47825 13.355C2.66166 13.5321 3.04331 13.8987 3.84174 13.9024C4.9586 13.9082 7.03233 13.2197 10.5679 9.9044C14.0863 6.60448 14.8293 4.66331 14.8293 3.61407L14.8293 3.59871C14.8254 2.85019 14.4336 2.49312 14.2455 2.32045C14.1877 2.26777 14.1456 2.22533 14.1191 2.19533C13.337 1.46657 12.7548 1.0934 12.3817 1.09704C12.0008 1.10218 11.5505 1.54632 10.9277 2.16021C10.7294 2.35557 10.514 2.56776 10.2752 2.79165C9.65785 3.37188 9.76321 3.65944 10.0005 4.29162C10.3275 5.16598 10.7724 6.36595 8.78293 8.2303C6.79272 10.0976 5.5143 9.67977 4.58163 9.37392C3.9073 9.15295 3.59979 9.05198 2.98009 9.63294C2.73815 9.8605 2.50869 10.0646 2.29796 10.2527C1.64704 10.8329 1.17641 11.2514 1.17095 11.6063L1.17095 11.6122C1.17095 11.9626 1.57055 12.507 2.3924 13.2775C2.39005 13.2753 2.38927 13.2738 2.38927 13.2738ZM16 3.61334C16 5.43671 14.4515 7.81396 11.396 10.68C8.32792 13.557 5.78435 15.0109 3.8355 14.9999C2.54771 14.9933 1.88821 14.3604 1.6408 14.1226C1.62441 14.1101 1.57992 14.0677 1.56431 14.0531C0.444327 13.0038 -0.00834913 12.2963 0.000116439 11.5924C0.0119433 10.7751 0.664421 10.1934 1.49095 9.45734C1.69543 9.27515 1.91787 9.07759 2.15201 8.85735C3.2915 7.78909 4.22105 8.09347 4.96719 8.33785C5.78122 8.60419 6.48365 8.83467 7.95563 7.4547C9.42761 6.07328 9.18176 5.41476 8.89532 4.65453C8.63464 3.95431 8.30841 3.08506 9.4479 2.01533C9.67892 1.79875 9.88731 1.59315 10.0801 1.40364C10.8691 0.625124 11.4927 0.0105058 12.3669 0.000128834C13.1122 -0.00851812 13.8716 0.415861 14.9901 1.46364L14.8602 1.34327L15.0634 1.53534C15.3171 1.76729 15.993 2.38484 16 3.59285L16 3.61334Z" fill="white"/>
</svg>
