<svg width="16" height="15" viewBox="0 0 16 15" fill="none" xmlns="http://www.w3.org/2000/svg">
<path fill-rule="evenodd" clip-rule="evenodd" d="M15.4259 9.67708C15.7564 9.70063 16.0038 9.97495 15.9789 10.2888L15.8269 12.1953C15.7012 13.7682 14.3029 15 12.6421 15H3.35744C1.69661 15 0.298309 13.7682 0.172646 12.1953L0.0205703 10.2888C-0.00424212 9.97495 0.243882 9.70063 0.574447 9.67708C0.906613 9.66568 1.19316 9.88832 1.21877 10.2029L1.37004 12.1087C1.44848 13.0904 2.32092 13.8602 3.35744 13.8602H12.6421C13.6786 13.8602 14.5518 13.0904 14.6295 12.1087L14.7816 10.2029C14.8072 9.88832 15.1009 9.66492 15.4259 9.67708ZM9.03244 0C10.2354 0 11.232 0.85582 11.3821 1.95974L12.9585 1.9604C14.6361 1.9604 16 3.25903 16 4.85628V7.46949C16 7.67238 15.8863 7.85931 15.7031 7.96113C13.7274 9.05953 11.2247 9.70019 8.59993 9.78565L8.60022 11.1524C8.60022 11.467 8.33129 11.7223 7.99992 11.7223C7.66855 11.7223 7.39962 11.467 7.39962 11.1524L7.3991 9.78584C4.77693 9.70115 2.27406 9.06035 0.296948 7.96113C0.112856 7.85931 0 7.67238 0 7.46949V4.84868C0 3.25599 1.36788 1.9604 3.04952 1.9604L4.61776 1.95974C4.76786 0.85582 5.76445 0 6.9674 0H9.03244ZM12.9585 3.10021H3.04952C2.02981 3.10021 1.2006 3.8844 1.2006 4.84868V7.13742C3.10052 8.11748 5.49573 8.65462 7.98879 8.65565L7.99992 8.65467L8.0088 8.65497L8.38992 8.6512C10.7477 8.59787 12.997 8.06679 14.7994 7.13742V4.85628C14.7994 3.88744 13.9742 3.10021 12.9585 3.10021ZM9.03244 1.13981H6.9674C6.42846 1.13981 5.97351 1.48804 5.83912 1.95993H10.1607C10.0263 1.48804 9.57138 1.13981 9.03244 1.13981Z" fill="white"/>
</svg>
