<svg width="15" height="10" viewBox="0 0 15 10" fill="none" xmlns="http://www.w3.org/2000/svg">
<path fill-rule="evenodd" clip-rule="evenodd" d="M10.9249 0C13.2481 0 15 1.39333 15 3.24103V6.76308C15 7.70872 14.5451 8.56308 13.7184 9.16923C12.9767 9.71231 12.0147 10 10.936 10H4.06186C2.98535 10 2.02395 9.71282 1.28163 9.16923C0.454884 8.56308 0 7.70872 0 6.76308V3.24103C0 1.39333 1.75186 0 4.07512 0H10.9249ZM10.9249 0.769231H4.07512C2.32047 0.769231 1.04651 1.80872 1.04651 3.24103V6.76308C1.04651 7.50308 1.39256 8.1641 2.02046 8.6241C2.56186 9.02154 3.2686 9.23077 4.06395 9.23077H10.9249C10.9263 9.22974 10.9319 9.23077 10.936 9.23077C11.7321 9.23077 12.4381 9.02154 12.9795 8.6241C13.6081 8.1641 13.9535 7.50308 13.9535 6.76308V3.24103C13.9535 1.80872 12.6795 0.769231 10.9249 0.769231ZM12.0244 3.14297C12.2065 3.30759 12.1723 3.54964 11.9484 3.684L8.84791 5.53631C8.45581 5.76503 7.98698 5.87938 7.51884 5.87938C7.05209 5.87938 6.58674 5.76605 6.19744 5.53938L3.06837 3.68503C2.84302 3.55169 2.80814 3.30913 2.98884 3.144C3.17093 2.97938 3.50023 2.95323 3.72488 3.08605L6.85116 4.93836C7.24395 5.16708 7.79721 5.16708 8.19279 4.93631L11.2877 3.08708C11.5123 2.95221 11.8416 2.97785 12.0244 3.14297Z" fill="#586B75"/>
</svg>
