<svg width="26" height="22" viewBox="0 0 26 22" fill="none" xmlns="http://www.w3.org/2000/svg">
<path fill-rule="evenodd" clip-rule="evenodd" d="M13.0006 13.6454L13.1354 13.6455L13.4371 13.6466C15.7425 13.6632 21.0112 13.9188 21.0112 17.837C21.0112 21.7296 15.9262 21.9834 13.473 22L12.5641 22C10.2585 21.9833 4.98882 21.7281 4.98882 17.8148C4.98882 13.9173 10.2585 13.6631 12.5641 13.6466L12.8658 13.6455C12.9125 13.6454 12.9575 13.6454 13.0006 13.6454ZM13.0006 15.6108C10.1632 15.6108 6.7801 15.9935 6.7801 17.8148C6.7801 19.5949 9.96129 20.011 12.7413 20.0346L13.0006 20.0357C15.838 20.0357 19.2199 19.6544 19.2199 17.837C19.2199 15.9974 15.838 15.6108 13.0006 15.6108ZM22.4987 13.1137C25.3922 13.5893 26 15.0804 26 16.2479C26 16.9607 25.7444 18.2618 24.0368 18.9759C23.9317 19.0192 23.8242 19.0402 23.7179 19.0402C23.3573 19.0402 23.0169 18.7991 22.8808 18.4073C22.7041 17.9002 22.9369 17.3315 23.3991 17.1389C24.2087 16.8009 24.2087 16.4274 24.2087 16.2479C24.2087 15.674 23.5436 15.2731 22.2324 15.0582C21.7439 14.9769 21.406 14.4777 21.4788 13.9392C21.5517 13.402 22.0055 13.0442 22.4987 13.1137ZM4.52118 13.9392C4.59402 14.4777 4.25607 14.9769 3.76765 15.0582C2.45644 15.2731 1.79128 15.674 1.79128 16.2479C1.79128 16.4274 1.79128 16.7995 2.60213 17.1389C3.06427 17.3315 3.29714 17.9002 3.1204 18.4073C2.98426 18.7991 2.64392 19.0402 2.28328 19.0402C2.177 19.0402 2.06952 19.0192 1.96443 18.9759C0.255555 18.2605 0 16.9594 0 16.2479C0 15.0818 0.607839 13.5893 3.50254 13.1137C3.99574 13.0456 4.44714 13.402 4.52118 13.9392ZM13.0006 0C16.0099 0 18.4568 2.6861 18.4568 5.98674C18.4568 9.28737 16.0099 11.9735 13.0006 11.9735H12.9684C11.5114 11.9682 10.1465 11.3419 9.12428 10.2098C8.09967 9.07903 7.5396 7.57743 7.54552 5.9828C7.54552 2.6861 9.99245 0 13.0006 0ZM13.0006 1.96544C10.98 1.96544 9.33682 3.76972 9.33682 5.98674C9.33326 7.06118 9.70823 8.06617 10.3949 8.82483C11.0815 9.58349 11.9963 10.0041 12.9707 10.008L13.0006 10.9907V10.008C15.0212 10.008 16.6655 8.20506 16.6655 5.98674C16.6655 3.76972 15.0212 1.96544 13.0006 1.96544ZM20.3914 1.28343C22.4908 1.66211 24.0157 3.63279 24.0157 5.96905C24.011 8.32103 22.4096 10.3389 20.2899 10.6651C20.2481 10.6717 20.2063 10.6743 20.1657 10.6743C19.7262 10.6743 19.3429 10.3192 19.2796 9.82786C19.2115 9.28933 19.5519 8.79273 20.0427 8.71804C21.2846 8.52674 22.2221 7.34486 22.2245 5.96643C22.2245 4.59979 21.3312 3.44411 20.1 3.22267C19.6128 3.13488 19.282 2.62911 19.362 2.0932C19.4432 1.55728 19.9006 1.19826 20.3914 1.28343ZM6.63918 2.0932C6.71919 2.62911 6.3884 3.13488 5.90118 3.22267C4.66997 3.44411 3.77672 4.59979 3.77672 5.96905C3.77911 7.34486 4.71655 8.52805 5.9573 8.71804C6.44811 8.79273 6.78845 9.28933 6.72039 9.82786C6.65709 10.3192 6.27376 10.6743 5.8343 10.6743C5.7937 10.6743 5.7519 10.6717 5.71011 10.6651C3.59043 10.3389 1.99023 8.32103 1.98545 5.97167C1.98545 3.63279 3.51042 1.66211 5.6098 1.28343C6.11255 1.19695 6.55798 1.55991 6.63918 2.0932Z" fill="white" fill-opacity="0.3"/>
</svg>
