<svg width="13" height="13" viewBox="0 0 13 13" fill="none" xmlns="http://www.w3.org/2000/svg">
<path d="M1.44749 6.33369C1.32431 6.08655 1.0241 5.98606 0.776954 6.10924C0.52981 6.23243 0.429322 6.53264 0.552507 6.77978L1.44749 6.33369ZM6.5 9.27837L6.54323 8.78024C6.51315 8.77763 6.4829 8.77775 6.45284 8.7806L6.5 9.27837ZM12.4563 6.76121C12.5692 6.50921 12.4565 6.21338 12.2045 6.10046C11.9525 5.98753 11.6566 6.10027 11.5437 6.35227L12.4563 6.76121ZM6 12C6 12.2761 6.22386 12.5 6.5 12.5C6.77614 12.5 7 12.2761 7 12H6ZM5.16667 6.55674C5.16667 6.55496 5.16667 6.55319 5.16667 6.5514C5.16667 6.54962 5.16667 6.54784 5.16667 6.54604C5.16667 6.54425 5.16667 6.54245 5.16667 6.54065C5.16667 6.53885 5.16667 6.53704 5.16667 6.53523C5.16667 6.53341 5.16667 6.5316 5.16667 6.52977C5.16667 6.52795 5.16667 6.52612 5.16667 6.52429C5.16667 6.52245 5.16667 6.52062 5.16667 6.51877C5.16667 6.51693 5.16667 6.51508 5.16667 6.51323C5.16667 6.51137 5.16667 6.50951 5.16667 6.50765C5.16667 6.50579 5.16667 6.50392 5.16667 6.50204C5.16667 6.50017 5.16667 6.49829 5.16667 6.49641C5.16667 6.49452 5.16667 6.49263 5.16667 6.49074C5.16667 6.48884 5.16667 6.48695 5.16667 6.48504C5.16667 6.48314 5.16667 6.48123 5.16667 6.47932C5.16667 6.4774 5.16667 6.47548 5.16667 6.47356C5.16667 6.47164 5.16667 6.46971 5.16667 6.46777C5.16667 6.46584 5.16667 6.4639 5.16667 6.46196C5.16667 6.46001 5.16667 6.45807 5.16667 6.45611C5.16667 6.45416 5.16667 6.4522 5.16667 6.45024C5.16667 6.44828 5.16667 6.44631 5.16667 6.44434C5.16667 6.44236 5.16667 6.44039 5.16667 6.4384C5.16667 6.43642 5.16667 6.43443 5.16667 6.43244C5.16667 6.43045 5.16667 6.42845 5.16667 6.42645C5.16667 6.42445 5.16667 6.42244 5.16667 6.42043C5.16667 6.41842 5.16667 6.4164 5.16667 6.41438C5.16667 6.41236 5.16667 6.41034 5.16667 6.40831C5.16667 6.40628 5.16667 6.40424 5.16667 6.4022C5.16667 6.40016 5.16667 6.39812 5.16667 6.39607C5.16667 6.39402 5.16667 6.39197 5.16667 6.38991C5.16667 6.38785 5.16667 6.38579 5.16667 6.38372C5.16667 6.38165 5.16667 6.37958 5.16667 6.3775C5.16667 6.37542 5.16667 6.37334 5.16667 6.37125C5.16667 6.36917 5.16667 6.36707 5.16667 6.36498C5.16667 6.36288 5.16667 6.36078 5.16667 6.35868C5.16667 6.35657 5.16667 6.35446 5.16667 6.35235C5.16667 6.35023 5.16667 6.34811 5.16667 6.34599C5.16667 6.34387 5.16667 6.34174 5.16667 6.33961C5.16667 6.33747 5.16667 6.33534 5.16667 6.33319C5.16667 6.33105 5.16667 6.32891 5.16667 6.32675C5.16667 6.3246 5.16667 6.32245 5.16667 6.32029C5.16667 6.31813 5.16667 6.31596 5.16667 6.31379C5.16667 6.31162 5.16667 6.30945 5.16667 6.30727C5.16667 6.3051 5.16667 6.30291 5.16667 6.30073C5.16667 6.29854 5.16667 6.29635 5.16667 6.29415C5.16667 6.29196 5.16667 6.28975 5.16667 6.28755C5.16667 6.28535 5.16667 6.28314 5.16667 6.28092C5.16667 6.27871 5.16667 6.27649 5.16667 6.27427C5.16667 6.27205 5.16667 6.26982 5.16667 6.26759C5.16667 6.26536 5.16667 6.26312 5.16667 6.26088C5.16667 6.25864 5.16667 6.2564 5.16667 6.25415C5.16667 6.2519 5.16667 6.24965 5.16667 6.24739C5.16667 6.24513 5.16667 6.24287 5.16667 6.2406C5.16667 6.23834 5.16667 6.23607 5.16667 6.23379C5.16667 6.23152 5.16667 6.22924 5.16667 6.22696C5.16667 6.22467 5.16667 6.22239 5.16667 6.22009C5.16667 6.2178 5.16667 6.21551 5.16667 6.21321C5.16667 6.21091 5.16667 6.2086 5.16667 6.20629C5.16667 6.20399 5.16667 6.20167 5.16667 6.19936C5.16667 6.19704 5.16667 6.19472 5.16667 6.19239C5.16667 6.19007 5.16667 6.18774 5.16667 6.1854C5.16667 6.18307 5.16667 6.18073 5.16667 6.17839C5.16667 6.17605 5.16667 6.1737 5.16667 6.17135C5.16667 6.169 5.16667 6.16664 5.16667 6.16428C5.16667 6.16193 5.16667 6.15956 5.16667 6.1572C5.16667 6.15483 5.16667 6.15246 5.16667 6.15008C5.16667 6.14771 5.16667 6.14533 5.16667 6.14294C5.16667 6.14056 5.16667 6.13817 5.16667 6.13578C5.16667 6.13339 5.16667 6.13099 5.16667 6.12859C5.16667 6.1262 5.16667 6.12379 5.16667 6.12138C5.16667 6.11898 5.16667 6.11656 5.16667 6.11415C5.16667 6.11173 5.16667 6.10931 5.16667 6.10689C5.16667 6.10447 5.16667 6.10204 5.16667 6.09961C5.16667 6.09717 5.16667 6.09474 5.16667 6.0923C5.16667 6.08986 5.16667 6.08742 5.16667 6.08497C5.16667 6.08252 5.16667 6.08007 5.16667 6.07761C5.16667 6.07516 5.16667 6.0727 5.16667 6.07024C5.16667 6.06777 5.16667 6.06531 5.16667 6.06283C5.16667 6.06036 5.16667 6.05789 5.16667 6.05541C5.16667 6.05293 5.16667 6.05045 5.16667 6.04796C5.16667 6.04548 5.16667 6.04298 5.16667 6.04049C5.16667 6.038 5.16667 6.0355 5.16667 6.033C5.16667 6.03049 5.16667 6.02799 5.16667 6.02548C5.16667 6.02297 5.16667 6.02046 5.16667 6.01794C5.16667 6.01542 5.16667 6.0129 5.16667 6.01038C5.16667 6.00785 5.16667 6.00532 5.16667 6.00279C5.16667 6.00026 5.16667 5.99772 5.16667 5.99518C5.16667 5.99264 5.16667 5.9901 5.16667 5.98755C5.16667 5.98501 5.16667 5.98245 5.16667 5.9799C5.16667 5.97735 5.16667 5.97479 5.16667 5.97223C5.16667 5.96966 5.16667 5.9671 5.16667 5.96453C5.16667 5.96196 5.16667 5.95939 5.16667 5.95681C5.16667 5.95423 5.16667 5.95165 5.16667 5.94907C5.16667 5.94648 5.16667 5.9439 5.16667 5.94131C5.16667 5.93871 5.16667 5.93612 5.16667 5.93352C5.16667 5.93092 5.16667 5.92832 5.16667 5.92572C5.16667 5.92311 5.16667 5.9205 5.16667 5.91789C5.16667 5.91528 5.16667 5.91266 5.16667 5.91004C5.16667 5.90742 5.16667 5.9048 5.16667 5.90217C5.16667 5.89954 5.16667 5.89691 5.16667 5.89428C5.16667 5.89164 5.16667 5.88901 5.16667 5.88636C5.16667 5.88372 5.16667 5.88108 5.16667 5.87843C5.16667 5.87578 5.16667 5.87313 5.16667 5.87048C5.16667 5.86782 5.16667 5.86516 5.16667 5.8625C5.16667 5.85984 5.16667 5.85717 5.16667 5.8545C5.16667 5.85184 5.16667 5.84916 5.16667 5.84649C5.16667 5.84381 5.16667 5.84113 5.16667 5.83845C5.16667 5.83577 5.16667 5.83308 5.16667 5.83039C5.16667 5.8277 5.16667 5.82501 5.16667 5.82232C5.16667 5.81962 5.16667 5.81692 5.16667 5.81422C5.16667 5.81151 5.16667 5.80881 5.16667 5.8061C5.16667 5.80339 5.16667 5.80068 5.16667 5.79796C5.16667 5.79524 5.16667 5.79253 5.16667 5.7898C5.16667 5.78708 5.16667 5.78435 5.16667 5.78162C5.16667 5.7789 5.16667 5.77616 5.16667 5.77343C5.16667 5.77069 5.16667 5.76795 5.16667 5.76521C5.16667 5.76247 5.16667 5.75972 5.16667 5.75697C5.16667 5.75422 5.16667 5.75147 5.16667 5.74872C5.16667 5.74596 5.16667 5.7432 5.16667 5.74044C5.16667 5.73768 5.16667 5.73492 5.16667 5.73215C5.16667 5.72938 5.16667 5.72661 5.16667 5.72383C5.16667 5.72106 5.16667 5.71828 5.16667 5.7155C5.16667 5.71272 5.16667 5.70994 5.16667 5.70715C5.16667 5.70436 5.16667 5.70157 5.16667 5.69878C5.16667 5.69599 5.16667 5.69319 5.16667 5.69039C5.16667 5.68759 5.16667 5.68479 5.16667 5.68198C5.16667 5.67918 5.16667 5.67637 5.16667 5.67356C5.16667 5.67075 5.16667 5.66793 5.16667 5.66511C5.16667 5.6623 5.16667 5.65947 5.16667 5.65665C5.16667 5.65383 5.16667 5.651 5.16667 5.64817C5.16667 5.64534 5.16667 5.64251 5.16667 5.63967C5.16667 5.63684 5.16667 5.634 5.16667 5.63115C5.16667 5.62831 5.16667 5.62547 5.16667 5.62262C5.16667 5.61977 5.16667 5.61692 5.16667 5.61407C5.16667 5.61121 5.16667 5.60836 5.16667 5.6055C5.16667 5.60264 5.16667 5.59977 5.16667 5.59691C5.16667 5.59404 5.16667 5.59118 5.16667 5.5883C5.16667 5.58543 5.16667 5.58256 5.16667 5.57968C5.16667 5.57681 5.16667 5.57393 5.16667 5.57104C5.16667 5.56816 5.16667 5.56527 5.16667 5.56239C5.16667 5.5595 5.16667 5.55661 5.16667 5.55371C5.16667 5.55082 5.16667 5.54792 5.16667 5.54502C5.16667 5.54212 5.16667 5.53922 5.16667 5.53631C5.16667 5.53341 5.16667 5.5305 5.16667 5.52759C5.16667 5.52468 5.16667 5.52176 5.16667 5.51885C5.16667 5.51593 5.16667 5.51301 5.16667 5.51009C5.16667 5.50717 5.16667 5.50424 5.16667 5.50132C5.16667 5.49839 5.16667 5.49546 5.16667 5.49252C5.16667 5.48959 5.16667 5.48666 5.16667 5.48372C5.16667 5.48078 5.16667 5.47784 5.16667 5.4749C5.16667 5.47195 5.16667 5.46901 5.16667 5.46606C5.16667 5.46311 5.16667 5.46016 5.16667 5.4572C5.16667 5.45425 5.16667 5.45129 5.16667 5.44833C5.16667 5.44537 5.16667 5.44241 5.16667 5.43944C5.16667 5.43648 5.16667 5.43351 5.16667 5.43054C5.16667 5.42757 5.16667 5.4246 5.16667 5.42162C5.16667 5.41865 5.16667 5.41567 5.16667 5.41269C5.16667 5.40971 5.16667 5.40673 5.16667 5.40374C5.16667 5.40076 5.16667 5.39777 5.16667 5.39478C5.16667 5.39179 5.16667 5.3888 5.16667 5.3858C5.16667 5.38281 5.16667 5.37981 5.16667 5.37681C5.16667 5.37381 5.16667 5.3708 5.16667 5.3678C5.16667 5.36479 5.16667 5.36179 5.16667 5.35878C5.16667 5.35576 5.16667 5.35275 5.16667 5.34974C5.16667 5.34672 5.16667 5.3437 5.16667 5.34068C5.16667 5.33766 5.16667 5.33464 5.16667 5.33162C5.16667 5.32859 5.16667 5.32556 5.16667 5.32253C5.16667 5.31951 5.16667 5.31647 5.16667 5.31344C5.16667 5.3104 5.16667 5.30737 5.16667 5.30433C5.16667 5.30129 5.16667 5.29825 5.16667 5.2952C5.16667 5.29216 5.16667 5.28911 5.16667 5.28607C5.16667 5.28302 5.16667 5.27997 5.16667 5.27691C5.16667 5.27386 5.16667 5.2708 5.16667 5.26775C5.16667 5.26469 5.16667 5.26163 5.16667 5.25857C5.16667 5.2555 5.16667 5.25244 5.16667 5.24937C5.16667 5.24631 5.16667 5.24324 5.16667 5.24017C5.16667 5.2371 5.16667 5.23402 5.16667 5.23095C5.16667 5.22787 5.16667 5.22479 5.16667 5.22171C5.16667 5.21863 5.16667 5.21555 5.16667 5.21247C5.16667 5.20938 5.16667 5.20629 5.16667 5.20321C5.16667 5.20012 5.16667 5.19703 5.16667 5.19393C5.16667 5.19084 5.16667 5.18774 5.16667 5.18465C5.16667 5.18155 5.16667 5.17845 5.16667 5.17535C5.16667 5.17225 5.16667 5.16914 5.16667 5.16604C5.16667 5.16293 5.16667 5.15982 5.16667 5.15671C5.16667 5.1536 5.16667 5.15049 5.16667 5.14738C5.16667 5.14426 5.16667 5.14115 5.16667 5.13803C5.16667 5.13491 5.16667 5.13179 5.16667 5.12867C5.16667 5.12554 5.16667 5.12242 5.16667 5.11929C5.16667 5.11617 5.16667 5.11304 5.16667 5.10991C5.16667 5.10678 5.16667 5.10364 5.16667 5.10051C5.16667 5.09738 5.16667 5.09424 5.16667 5.0911C5.16667 5.08796 5.16667 5.08482 5.16667 5.08168C5.16667 5.07854 5.16667 5.07539 5.16667 5.07225C5.16667 5.0691 5.16667 5.06595 5.16667 5.0628C5.16667 5.05965 5.16667 5.0565 5.16667 5.05335C5.16667 5.05019 5.16667 5.04704 5.16667 5.04388C5.16667 5.04072 5.16667 5.03756 5.16667 5.0344C5.16667 5.03124 5.16667 5.02808 5.16667 5.02491C5.16667 5.02175 5.16667 5.01858 5.16667 5.01541C5.16667 5.01224 5.16667 5.00907 5.16667 5.0059C5.16667 5.00273 5.16667 4.99955 5.16667 4.99638C5.16667 4.9932 5.16667 4.99002 5.16667 4.98684C5.16667 4.98366 5.16667 4.98048 5.16667 4.9773C5.16667 4.97412 5.16667 4.97093 5.16667 4.96774C5.16667 4.96456 5.16667 4.96137 5.16667 4.95818C5.16667 4.95499 5.16667 4.9518 5.16667 4.9486C5.16667 4.94541 5.16667 4.94221 5.16667 4.93902C5.16667 4.93582 5.16667 4.93262 5.16667 4.92942C5.16667 4.92622 5.16667 4.92302 5.16667 4.91982C5.16667 4.91661 5.16667 4.91341 5.16667 4.9102C5.16667 4.90699 5.16667 4.90378 5.16667 4.90057C5.16667 4.89736 5.16667 4.89415 5.16667 4.89094C5.16667 4.88773 5.16667 4.88451 5.16667 4.88129C5.16667 4.87808 5.16667 4.87486 5.16667 4.87164C5.16667 4.86842 5.16667 4.8652 5.16667 4.86198C5.16667 4.85875 5.16667 4.85553 5.16667 4.8523C5.16667 4.84908 5.16667 4.84585 5.16667 4.84262C5.16667 4.83939 5.16667 4.83616 5.16667 4.83293C5.16667 4.82969 5.16667 4.82646 5.16667 4.82323C5.16667 4.81999 5.16667 4.81675 5.16667 4.81352C5.16667 4.81028 5.16667 4.80704 5.16667 4.8038C5.16667 4.80056 5.16667 4.79731 5.16667 4.79407C5.16667 4.79083 5.16667 4.78758 5.16667 4.78433C5.16667 4.78109 5.16667 4.77784 5.16667 4.77459C5.16667 4.77134 5.16667 4.76809 5.16667 4.76484C5.16667 4.76158 5.16667 4.75833 5.16667 4.75507C5.16667 4.75182 5.16667 4.74856 5.16667 4.74531C5.16667 4.74205 5.16667 4.73879 5.16667 4.73553C5.16667 4.73227 5.16667 4.72901 5.16667 4.72574C5.16667 4.72248 5.16667 4.71921 5.16667 4.71595C5.16667 4.71268 5.16667 4.70942 5.16667 4.70615C5.16667 4.70288 5.16667 4.69961 5.16667 4.69634C5.16667 4.69307 5.16667 4.68979 5.16667 4.68652C5.16667 4.68325 5.16667 4.67997 5.16667 4.6767C5.16667 4.67342 5.16667 4.67014 5.16667 4.66686C5.16667 4.66359 5.16667 4.66031 5.16667 4.65703C5.16667 4.65374 5.16667 4.65046 5.16667 4.64718C5.16667 4.6439 5.16667 4.64061 5.16667 4.63733C5.16667 4.63404 5.16667 4.63075 5.16667 4.62746C5.16667 4.62418 5.16667 4.62089 5.16667 4.6176C5.16667 4.61431 5.16667 4.61102 5.16667 4.60772C5.16667 4.60443 5.16667 4.60114 5.16667 4.59784C5.16667 4.59455 5.16667 4.59125 5.16667 4.58795C5.16667 4.58466 5.16667 4.58136 5.16667 4.57806C5.16667 4.57476 5.16667 4.57146 5.16667 4.56816C5.16667 4.56486 5.16667 4.56156 5.16667 4.55825C5.16667 4.55495 5.16667 4.55165 5.16667 4.54834C5.16667 4.54503 5.16667 4.54173 5.16667 4.53842C5.16667 4.53511 5.16667 4.53181 5.16667 4.5285C5.16667 4.52519 5.16667 4.52188 5.16667 4.51856C5.16667 4.51525 5.16667 4.51194 5.16667 4.50863C5.16667 4.50531 5.16667 4.502 5.16667 4.49869C5.16667 4.49537 5.16667 4.49205 5.16667 4.48874C5.16667 4.48542 5.16667 4.4821 5.16667 4.47878C5.16667 4.47546 5.16667 4.47215 5.16667 4.46882C5.16667 4.4655 5.16667 4.46218 5.16667 4.45886C5.16667 4.45554 5.16667 4.45221 5.16667 4.44889C5.16667 4.44557 5.16667 4.44224 5.16667 4.43892C5.16667 4.43559 5.16667 4.43226 5.16667 4.42894C5.16667 4.42561 5.16667 4.42228 5.16667 4.41895C5.16667 4.41562 5.16667 4.41229 5.16667 4.40896C5.16667 4.40563 5.16667 4.4023 5.16667 4.39897C5.16667 4.39564 5.16667 4.3923 5.16667 4.38897C5.16667 4.38564 5.16667 4.3823 5.16667 4.37897C5.16667 4.37563 5.16667 4.3723 5.16667 4.36896C5.16667 4.36562 5.16667 4.36229 5.16667 4.35895C5.16667 4.35561 5.16667 4.35227 5.16667 4.34893C5.16667 4.34559 5.16667 4.34225 5.16667 4.33891C5.16667 4.33557 5.16667 4.33223 5.16667 4.32889C5.16667 4.32555 5.16667 4.3222 5.16667 4.31886C5.16667 4.31552 5.16667 4.31217 5.16667 4.30883C5.16667 4.30548 5.16667 4.30214 5.16667 4.29879C5.16667 4.29545 5.16667 4.2921 5.16667 4.28876C5.16667 4.28541 5.16667 4.28206 5.16667 4.27871C5.16667 4.27536 5.16667 4.27202 5.16667 4.26867C5.16667 4.26532 5.16667 4.26197 5.16667 4.25862C5.16667 4.25527 5.16667 4.25192 5.16667 4.24857C5.16667 4.24521 5.16667 4.24186 5.16667 4.23851C5.16667 4.23516 5.16667 4.23181 5.16667 4.22845C5.16667 4.2251 5.16667 4.22175 5.16667 4.21839C5.16667 4.21504 5.16667 4.21168 5.16667 4.20833C5.16667 4.20497 5.16667 4.20162 5.16667 4.19826C5.16667 4.19491 5.16667 4.19155 5.16667 4.18819C5.16667 4.18484 5.16667 4.18148 5.16667 4.17812C5.16667 4.17476 5.16667 4.17141 5.16667 4.16805C5.16667 4.16469 5.16667 4.16133 5.16667 4.15797C5.16667 4.15461 5.16667 4.15125 5.16667 4.14789C5.16667 4.14453 5.16667 4.14117 5.16667 4.13781C5.16667 4.13445 5.16667 4.13109 5.16667 4.12773C5.16667 4.12437 5.16667 4.12101 5.16667 4.11765C5.16667 4.11429 5.16667 4.11092 5.16667 4.10756C5.16667 4.1042 5.16667 4.10084 5.16667 4.09747C5.16667 4.09411 5.16667 4.09075 5.16667 4.08739C5.16667 4.08402 5.16667 4.08066 5.16667 4.0773C5.16667 4.07393 5.16667 4.07057 5.16667 4.0672C5.16667 4.06384 5.16667 4.06047 5.16667 4.05711C5.16667 4.05375 5.16667 4.05038 5.16667 4.04702C5.16667 4.04365 5.16667 4.04029 5.16667 4.03692C5.16667 4.03356 5.16667 4.03019 5.16667 4.02683C5.16667 4.02346 5.16667 4.02009 5.16667 4.01673C5.16667 4.01336 5.16667 4.01 5.16667 4.00663C5.16667 4.00326 5.16667 3.9999 5.16667 3.99653C5.16667 3.99317 5.16667 3.9898 5.16667 3.98643C5.16667 3.98307 5.16667 3.9797 5.16667 3.97633C5.16667 3.97297 5.16667 3.9696 5.16667 3.96623C5.16667 3.96287 5.16667 3.9595 5.16667 3.95614C5.16667 3.95277 5.16667 3.9494 5.16667 3.94604C5.16667 3.94267 5.16667 3.9393 5.16667 3.93594C5.16667 3.93257 5.16667 3.9292 5.16667 3.92584C5.16667 3.92247 5.16667 3.9191 5.16667 3.91574C5.16667 3.91237 5.16667 3.909 5.16667 3.90564C5.16667 3.90227 5.16667 3.8989 5.16667 3.89554C5.16667 3.89217 5.16667 3.88881 5.16667 3.88544C5.16667 3.88207 5.16667 3.87871 5.16667 3.87534C5.16667 3.87198 5.16667 3.86861 5.16667 3.86524C5.16667 3.86188 5.16667 3.85851 5.16667 3.85515C5.16667 3.85178 5.16667 3.84842 5.16667 3.84505C5.16667 3.84169 5.16667 3.83832 5.16667 3.83496C5.16667 3.83159 5.16667 3.82823 5.16667 3.82486C5.16667 3.8215 5.16667 3.81814 5.16667 3.81477C5.16667 3.81141 5.16667 3.80804 5.16667 3.80468C5.16667 3.80132 5.16667 3.79795 5.16667 3.79459C5.16667 3.79123 5.16667 3.78787 5.16667 3.7845C5.16667 3.78114 5.16667 3.77778 5.16667 3.77442C5.16667 3.77105 5.16667 3.76769 5.16667 3.76433C5.16667 3.76097 5.16667 3.75761 5.16667 3.75425C5.16667 3.75089 5.16667 3.74753 5.16667 3.74417C5.16667 3.74081 5.16667 3.73745 5.16667 3.73409C5.16667 3.73073 5.16667 3.72737 5.16667 3.72401C5.16667 3.72065 5.16667 3.7173 5.16667 3.71394C5.16667 3.71058 5.16667 3.70722 5.16667 3.70387C5.16667 3.70051 5.16667 3.69715 5.16667 3.6938C5.16667 3.69044 5.16667 3.68708 5.16667 3.68373C5.16667 3.68037 5.16667 3.67702 5.16667 3.67366C5.16667 3.67031 5.16667 3.66695 5.16667 3.6636C5.16667 3.66025 5.16667 3.65689 5.16667 3.65354C5.16667 3.65019 5.16667 3.64684 5.16667 3.64348C5.16667 3.64013 5.16667 3.63678 5.16667 3.63343C5.16667 3.63008 5.16667 3.62673 5.16667 3.62338C5.16667 3.62003 5.16667 3.61668 5.16667 3.61333C5.16667 3.60999 5.16667 3.60664 5.16667 3.60329C5.16667 3.59994 5.16667 3.5966 5.16667 3.59325C5.16667 3.5899 5.16667 3.58656 5.16667 3.58321C5.16667 3.57987 5.16667 3.57652 5.16667 3.57318C5.16667 3.56984 5.16667 3.56649 5.16667 3.56315C5.16667 3.55981 5.16667 3.55647 5.16667 3.55313C5.16667 3.54978 5.16667 3.54644 5.16667 3.5431C5.16667 3.53976 5.16667 3.53642 5.16667 3.53309C5.16667 3.52975 5.16667 3.52641 5.16667 3.52307C5.16667 3.51974 5.16667 3.5164 5.16667 3.51306C5.16667 3.50973 5.16667 3.50639 5.16667 3.50306C5.16667 3.49972 5.16667 3.49639 5.16667 3.49306C5.16667 3.48972 5.16667 3.48639 5.16667 3.48306C5.16667 3.47973 5.16667 3.4764 5.16667 3.47307C5.16667 3.46974 5.16667 3.46641 5.16667 3.46308C5.16667 3.45976 5.16667 3.45643 5.16667 3.4531C5.16667 3.44978 5.16667 3.44645 5.16667 3.44313C5.16667 3.4398 5.16667 3.43648 5.16667 3.43315C5.16667 3.42983 5.16667 3.42651 5.16667 3.42319C5.16667 3.41987 5.16667 3.41655 5.16667 3.41323C5.16667 3.40991 5.16667 3.40659 5.16667 3.40327C5.16667 3.39995 5.16667 3.39664 5.16667 3.39332C5.16667 3.39 5.16667 3.38669 5.16667 3.38337C5.16667 3.38006 5.16667 3.37675 5.16667 3.37344C5.16667 3.37012 5.16667 3.36681 5.16667 3.3635C5.16667 3.36019 5.16667 3.35688 5.16667 3.35357C5.16667 3.35027 5.16667 3.34696 5.16667 3.34365C5.16667 3.34035 5.16667 3.33704 5.16667 3.33374C5.16667 3.33043 5.16667 3.32713 5.16667 3.32383C5.16667 3.32052 5.16667 3.31722 5.16667 3.31392C5.16667 3.31062 5.16667 3.30732 5.16667 3.30403C5.16667 3.30073 5.16667 3.29743 5.16667 3.29414C5.16667 3.29084 5.16667 3.28755 5.16667 3.28425C5.16667 3.28096 5.16667 3.27767 5.16667 3.27438C5.16667 3.27108 5.16667 3.26779 5.16667 3.26451C5.16667 3.26122 5.16667 3.25793 5.16667 3.25464C5.16667 3.25135 5.16667 3.24807 5.16667 3.24479C5.16667 3.2415 5.16667 3.23822 5.16667 3.23494C5.16667 3.23165 5.16667 3.22837 5.16667 3.22509C5.16667 3.22181 5.16667 3.21854 5.16667 3.21526C5.16667 3.21198 5.16667 3.20871 5.16667 3.20543C5.16667 3.20216 5.16667 3.19888 5.16667 3.19561C5.16667 3.19234 5.16667 3.18907 5.16667 3.1858C5.16667 3.18253 5.16667 3.17926 5.16667 3.17599C5.16667 3.17273 5.16667 3.16946 5.16667 3.1662C5.16667 3.16293 5.16667 3.15967 5.16667 3.15641C5.16667 3.15315 5.16667 3.14988 5.16667 3.14663C5.16667 3.14337 5.16667 3.14011 5.16667 3.13685C5.16667 3.1336 5.16667 3.13034 5.16667 3.12709C5.16667 3.12383 5.16667 3.12058 5.16667 3.11733C5.16667 3.11408 5.16667 3.11083 5.16667 3.10758C5.16667 3.10433 5.16667 3.10109 5.16667 3.09784C5.16667 3.0946 5.16667 3.09135 5.16667 3.08811C5.16667 3.08487 5.16667 3.08163 5.16667 3.07839C5.16667 3.07515 5.16667 3.07191 5.16667 3.06868C5.16667 3.06544 5.16667 3.0622 5.16667 3.05897C5.16667 3.05574 5.16667 3.05251 5.16667 3.04928C5.16667 3.04604 5.16667 3.04282 5.16667 3.03959C5.16667 3.03636 5.16667 3.03314 5.16667 3.02991C5.16667 3.02669 5.16667 3.02346 5.16667 3.02024C5.16667 3.01702 5.16667 3.0138 5.16667 3.01058C5.16667 3.00737 5.16667 3.00415 5.16667 3.00093C5.16667 2.99772 5.16667 2.99451 5.16667 2.9913C5.16667 2.98808 5.16667 2.98487 5.16667 2.98167C5.16667 2.97846 5.16667 2.97525 5.16667 2.97205C5.16667 2.96884 5.16667 2.96564 5.16667 2.96244C5.16667 2.95923 5.16667 2.95603 5.16667 2.95283C5.16667 2.94964 5.16667 2.94644 5.16667 2.94324C5.16667 2.94005 5.16667 2.93686 5.16667 2.93366C5.16667 2.93047 5.16667 2.92728 5.16667 2.9241C5.16667 2.92091 5.16667 2.91772 5.16667 2.91454C5.16667 2.91135 5.16667 2.90817 5.16667 2.90499C5.16667 2.90181 5.16667 2.89863 5.16667 2.89545C5.16667 2.89227 5.16667 2.8891 5.16667 2.88592C5.16667 2.88275 5.16667 2.87958 5.16667 2.87641C5.16667 2.87324 5.16667 2.87007 5.16667 2.8669C5.16667 2.86373 5.16667 2.86057 5.16667 2.85741C5.16667 2.85424 5.16667 2.85108 5.16667 2.84792C5.16667 2.84476 5.16667 2.84161 5.16667 2.83845C5.16667 2.8353 5.16667 2.83214 5.16667 2.82899C5.16667 2.82584 5.16667 2.82269 5.16667 2.81954C5.16667 2.81639 5.16667 2.81325 5.16667 2.8101C5.16667 2.80696 5.16667 2.80382 5.16667 2.80068C5.16667 2.79754 5.16667 2.7944 5.16667 2.79126C5.16667 2.78813 5.16667 2.78499 5.16667 2.78186C5.16667 2.77873 5.16667 2.7756 5.16667 2.77247C5.16667 2.76934 5.16667 2.76621 5.16667 2.76309C5.16667 2.75997 5.16667 2.75684 5.16667 2.75372C5.16667 2.7506 5.16667 2.74749 5.16667 2.74437C5.16667 2.74125 5.16667 2.73814 5.16667 2.73503C5.16667 2.73192 5.16667 2.72881 5.16667 2.7257C5.16667 2.72259 5.16667 2.71949 5.16667 2.71638C5.16667 2.71328 5.16667 2.71018 5.16667 2.70708C5.16667 2.70398 5.16667 2.70088 5.16667 2.69779C5.16667 2.69469 5.16667 2.6916 5.16667 2.68851C5.16667 2.68542 5.16667 2.68233 5.16667 2.67924C5.16667 2.67616 5.16667 2.67307 5.16667 2.66999C5.16667 2.66691 5.16667 2.66383 5.16667 2.66075C5.16667 2.65767 5.16667 2.6546 5.16667 2.65152C5.16667 2.64845 5.16667 2.64538 5.16667 2.64231C5.16667 2.63924 5.16667 2.63618 5.16667 2.63311C5.16667 2.63005 5.16667 2.62699 5.16667 2.62393C5.16667 2.62087 5.16667 2.61781 5.16667 2.61475C5.16667 2.6117 5.16667 2.60865 5.16667 2.6056C5.16667 2.60255 5.16667 2.5995 5.16667 2.59645C5.16667 2.59341 5.16667 2.59036 5.16667 2.58732C5.16667 2.58428 5.16667 2.58124 5.16667 2.5782C5.16667 2.57517 5.16667 2.57213 5.16667 2.5691C5.16667 2.56607 5.16667 2.56304 5.16667 2.56001C5.16667 2.55699 5.16667 2.55396 5.16667 2.55094C5.16667 2.54792 5.16667 2.5449 5.16667 2.54188C5.16667 2.53886 5.16667 2.53585 5.16667 2.53284C5.16667 2.52982 5.16667 2.52682 5.16667 2.52381C5.16667 2.5208 5.16667 2.5178 5.16667 2.51479C5.16667 2.51179 5.16667 2.50879 5.16667 2.50579C5.16667 2.50279 5.16667 2.4998 5.16667 2.49681C5.16667 2.49381 5.16667 2.49082 5.16667 2.48784C5.16667 2.48485 5.16667 2.48186 5.16667 2.47888C5.16667 2.4759 5.16667 2.47292 5.16667 2.46994C5.16667 2.46697 5.16667 2.46399 5.16667 2.46102C5.16667 2.45805 5.16667 2.45508 5.16667 2.45211C5.16667 2.44914 5.16667 2.44618 5.16667 2.44322C5.16667 2.44025 5.16667 2.4373 5.16667 2.43434C5.16667 2.43138 5.16667 2.42843 5.16667 2.42548C5.16667 2.42253 5.16667 2.41958 5.16667 2.41663C5.16667 2.41369 5.16667 2.41074 5.16667 2.4078C5.16667 2.40486 5.16667 2.40192 5.16667 2.39899C5.16667 2.39605 5.16667 2.39312 5.16667 2.39019C5.16667 2.38726 5.16667 2.38433 5.16667 2.38141C5.16667 2.37848 5.16667 2.37556 5.16667 2.37264C5.16667 2.36973 5.16667 2.36681 5.16667 2.3639C5.16667 2.36098 5.16667 2.35807 5.16667 2.35516C5.16667 2.35226 5.16667 2.34935 5.16667 2.34645C5.16667 2.34355 5.16667 2.34065 5.16667 2.33775C5.16667 2.33485 5.16667 2.33196 5.16667 2.32907C5.16667 2.32618 5.16667 2.32329 5.16667 2.32041C5.16667 2.31752 5.16667 2.31464 5.16667 2.31176C5.16667 2.30888 5.16667 2.306 5.16667 2.30313C5.16667 2.30026 5.16667 2.29738 5.16667 2.29452C5.16667 2.29165 5.16667 2.28878 5.16667 2.28592C5.16667 2.28306 5.16667 2.2802 5.16667 2.27734C5.16667 2.27449 5.16667 2.27163 5.16667 2.26878C5.16667 2.26593 5.16667 2.26309 5.16667 2.26024C5.16667 2.2574 5.16667 2.25456 5.16667 2.25172C5.16667 2.24888 5.16667 2.24604 5.16667 2.24321C5.16667 2.24038 5.16667 2.23755 5.16667 2.23472C5.16667 2.23189 5.16667 2.22907 5.16667 2.22625C5.16667 2.22343 5.16667 2.22061 5.16667 2.2178C5.16667 2.21498 5.16667 2.21217 5.16667 2.20937C5.16667 2.20656 5.16667 2.20375 5.16667 2.20095C5.16667 2.19815 5.16667 2.19535 5.16667 2.19255C5.16667 2.18976 5.16667 2.18696 5.16667 2.18417C5.16667 2.18138 5.16667 2.1786 5.16667 2.17581C5.16667 2.17303 5.16667 2.17025 5.16667 2.16747C5.16667 2.1647 5.16667 2.16192 5.16667 2.15915C5.16667 2.15638 5.16667 2.15361 5.16667 2.15085C5.16667 2.14809 5.16667 2.14532 5.16667 2.14257C5.16667 2.13981 5.16667 2.13705 5.16667 2.1343C5.16667 2.13155 5.16667 2.1288 5.16667 2.12606C5.16667 2.12331 5.16667 2.12057 5.16667 2.11783C5.16667 2.11509 5.16667 2.11236 5.16667 2.10963C5.16667 2.10689 5.16667 2.10416 5.16667 2.10144C5.16667 2.09871 5.16667 2.09599 5.16667 2.09327C5.16667 2.09055 5.16667 2.08784 5.16667 2.08513C5.16667 2.08241 5.16667 2.0797 5.16667 2.077C5.16667 2.07429 5.16667 2.07159 5.16667 2.06889C5.16667 2.06619 5.16667 2.0635 5.16667 2.06081C5.16667 2.05811 5.16667 2.05542 5.16667 2.05274C5.16667 2.05005 5.16667 2.04737 5.16667 2.04469C5.16667 2.04201 5.16667 2.03934 5.16667 2.03667C5.16667 2.034 5.16667 2.03133 5.16667 2.02866C5.16667 2.026 5.16667 2.02334 5.16667 2.02068H4.16667C4.16667 2.02334 4.16667 2.026 4.16667 2.02866C4.16667 2.03133 4.16667 2.034 4.16667 2.03667C4.16667 2.03934 4.16667 2.04201 4.16667 2.04469C4.16667 2.04737 4.16667 2.05005 4.16667 2.05274C4.16667 2.05542 4.16667 2.05811 4.16667 2.06081C4.16667 2.0635 4.16667 2.06619 4.16667 2.06889C4.16667 2.07159 4.16667 2.07429 4.16667 2.077C4.16667 2.0797 4.16667 2.08241 4.16667 2.08513C4.16667 2.08784 4.16667 2.09055 4.16667 2.09327C4.16667 2.09599 4.16667 2.09871 4.16667 2.10144C4.16667 2.10416 4.16667 2.10689 4.16667 2.10963C4.16667 2.11236 4.16667 2.11509 4.16667 2.11783C4.16667 2.12057 4.16667 2.12331 4.16667 2.12606C4.16667 2.1288 4.16667 2.13155 4.16667 2.1343C4.16667 2.13705 4.16667 2.13981 4.16667 2.14257C4.16667 2.14532 4.16667 2.14809 4.16667 2.15085C4.16667 2.15361 4.16667 2.15638 4.16667 2.15915C4.16667 2.16192 4.16667 2.1647 4.16667 2.16747C4.16667 2.17025 4.16667 2.17303 4.16667 2.17581C4.16667 2.1786 4.16667 2.18138 4.16667 2.18417C4.16667 2.18696 4.16667 2.18976 4.16667 2.19255C4.16667 2.19535 4.16667 2.19815 4.16667 2.20095C4.16667 2.20375 4.16667 2.20656 4.16667 2.20937C4.16667 2.21217 4.16667 2.21498 4.16667 2.2178C4.16667 2.22061 4.16667 2.22343 4.16667 2.22625C4.16667 2.22907 4.16667 2.23189 4.16667 2.23472C4.16667 2.23755 4.16667 2.24038 4.16667 2.24321C4.16667 2.24604 4.16667 2.24888 4.16667 2.25172C4.16667 2.25456 4.16667 2.2574 4.16667 2.26024C4.16667 2.26309 4.16667 2.26593 4.16667 2.26878C4.16667 2.27163 4.16667 2.27449 4.16667 2.27734C4.16667 2.2802 4.16667 2.28306 4.16667 2.28592C4.16667 2.28878 4.16667 2.29165 4.16667 2.29452C4.16667 2.29738 4.16667 2.30026 4.16667 2.30313C4.16667 2.306 4.16667 2.30888 4.16667 2.31176C4.16667 2.31464 4.16667 2.31752 4.16667 2.32041C4.16667 2.32329 4.16667 2.32618 4.16667 2.32907C4.16667 2.33196 4.16667 2.33485 4.16667 2.33775C4.16667 2.34065 4.16667 2.34355 4.16667 2.34645C4.16667 2.34935 4.16667 2.35226 4.16667 2.35516C4.16667 2.35807 4.16667 2.36098 4.16667 2.3639C4.16667 2.36681 4.16667 2.36973 4.16667 2.37264C4.16667 2.37556 4.16667 2.37848 4.16667 2.38141C4.16667 2.38433 4.16667 2.38726 4.16667 2.39019C4.16667 2.39312 4.16667 2.39605 4.16667 2.39899C4.16667 2.40192 4.16667 2.40486 4.16667 2.4078C4.16667 2.41074 4.16667 2.41369 4.16667 2.41663C4.16667 2.41958 4.16667 2.42253 4.16667 2.42548C4.16667 2.42843 4.16667 2.43138 4.16667 2.43434C4.16667 2.4373 4.16667 2.44025 4.16667 2.44322C4.16667 2.44618 4.16667 2.44914 4.16667 2.45211C4.16667 2.45508 4.16667 2.45805 4.16667 2.46102C4.16667 2.46399 4.16667 2.46697 4.16667 2.46994C4.16667 2.47292 4.16667 2.4759 4.16667 2.47888C4.16667 2.48186 4.16667 2.48485 4.16667 2.48784C4.16667 2.49082 4.16667 2.49381 4.16667 2.49681C4.16667 2.4998 4.16667 2.50279 4.16667 2.50579C4.16667 2.50879 4.16667 2.51179 4.16667 2.51479C4.16667 2.5178 4.16667 2.5208 4.16667 2.52381C4.16667 2.52682 4.16667 2.52982 4.16667 2.53284C4.16667 2.53585 4.16667 2.53886 4.16667 2.54188C4.16667 2.5449 4.16667 2.54792 4.16667 2.55094C4.16667 2.55396 4.16667 2.55699 4.16667 2.56001C4.16667 2.56304 4.16667 2.56607 4.16667 2.5691C4.16667 2.57213 4.16667 2.57517 4.16667 2.5782C4.16667 2.58124 4.16667 2.58428 4.16667 2.58732C4.16667 2.59036 4.16667 2.59341 4.16667 2.59645C4.16667 2.5995 4.16667 2.60255 4.16667 2.6056C4.16667 2.60865 4.16667 2.6117 4.16667 2.61475C4.16667 2.61781 4.16667 2.62087 4.16667 2.62393C4.16667 2.62699 4.16667 2.63005 4.16667 2.63311C4.16667 2.63618 4.16667 2.63924 4.16667 2.64231C4.16667 2.64538 4.16667 2.64845 4.16667 2.65152C4.16667 2.6546 4.16667 2.65767 4.16667 2.66075C4.16667 2.66383 4.16667 2.66691 4.16667 2.66999C4.16667 2.67307 4.16667 2.67616 4.16667 2.67924C4.16667 2.68233 4.16667 2.68542 4.16667 2.68851C4.16667 2.6916 4.16667 2.69469 4.16667 2.69779C4.16667 2.70088 4.16667 2.70398 4.16667 2.70708C4.16667 2.71018 4.16667 2.71328 4.16667 2.71638C4.16667 2.71949 4.16667 2.72259 4.16667 2.7257C4.16667 2.72881 4.16667 2.73192 4.16667 2.73503C4.16667 2.73814 4.16667 2.74125 4.16667 2.74437C4.16667 2.74749 4.16667 2.7506 4.16667 2.75372C4.16667 2.75684 4.16667 2.75997 4.16667 2.76309C4.16667 2.76621 4.16667 2.76934 4.16667 2.77247C4.16667 2.7756 4.16667 2.77873 4.16667 2.78186C4.16667 2.78499 4.16667 2.78813 4.16667 2.79126C4.16667 2.7944 4.16667 2.79754 4.16667 2.80068C4.16667 2.80382 4.16667 2.80696 4.16667 2.8101C4.16667 2.81325 4.16667 2.81639 4.16667 2.81954C4.16667 2.82269 4.16667 2.82584 4.16667 2.82899C4.16667 2.83214 4.16667 2.8353 4.16667 2.83845C4.16667 2.84161 4.16667 2.84476 4.16667 2.84792C4.16667 2.85108 4.16667 2.85424 4.16667 2.85741C4.16667 2.86057 4.16667 2.86373 4.16667 2.8669C4.16667 2.87007 4.16667 2.87324 4.16667 2.87641C4.16667 2.87958 4.16667 2.88275 4.16667 2.88592C4.16667 2.8891 4.16667 2.89227 4.16667 2.89545C4.16667 2.89863 4.16667 2.90181 4.16667 2.90499C4.16667 2.90817 4.16667 2.91135 4.16667 2.91454C4.16667 2.91772 4.16667 2.92091 4.16667 2.9241C4.16667 2.92728 4.16667 2.93047 4.16667 2.93366C4.16667 2.93686 4.16667 2.94005 4.16667 2.94324C4.16667 2.94644 4.16667 2.94964 4.16667 2.95283C4.16667 2.95603 4.16667 2.95923 4.16667 2.96244C4.16667 2.96564 4.16667 2.96884 4.16667 2.97205C4.16667 2.97525 4.16667 2.97846 4.16667 2.98167C4.16667 2.98487 4.16667 2.98808 4.16667 2.9913C4.16667 2.99451 4.16667 2.99772 4.16667 3.00093C4.16667 3.00415 4.16667 3.00737 4.16667 3.01058C4.16667 3.0138 4.16667 3.01702 4.16667 3.02024C4.16667 3.02346 4.16667 3.02669 4.16667 3.02991C4.16667 3.03314 4.16667 3.03636 4.16667 3.03959C4.16667 3.04282 4.16667 3.04604 4.16667 3.04928C4.16667 3.05251 4.16667 3.05574 4.16667 3.05897C4.16667 3.0622 4.16667 3.06544 4.16667 3.06868C4.16667 3.07191 4.16667 3.07515 4.16667 3.07839C4.16667 3.08163 4.16667 3.08487 4.16667 3.08811C4.16667 3.09135 4.16667 3.0946 4.16667 3.09784C4.16667 3.10109 4.16667 3.10433 4.16667 3.10758C4.16667 3.11083 4.16667 3.11408 4.16667 3.11733C4.16667 3.12058 4.16667 3.12383 4.16667 3.12709C4.16667 3.13034 4.16667 3.1336 4.16667 3.13685C4.16667 3.14011 4.16667 3.14337 4.16667 3.14663C4.16667 3.14988 4.16667 3.15315 4.16667 3.15641C4.16667 3.15967 4.16667 3.16293 4.16667 3.1662C4.16667 3.16946 4.16667 3.17273 4.16667 3.17599C4.16667 3.17926 4.16667 3.18253 4.16667 3.1858C4.16667 3.18907 4.16667 3.19234 4.16667 3.19561C4.16667 3.19888 4.16667 3.20216 4.16667 3.20543C4.16667 3.20871 4.16667 3.21198 4.16667 3.21526C4.16667 3.21854 4.16667 3.22181 4.16667 3.22509C4.16667 3.22837 4.16667 3.23165 4.16667 3.23494C4.16667 3.23822 4.16667 3.2415 4.16667 3.24479C4.16667 3.24807 4.16667 3.25135 4.16667 3.25464C4.16667 3.25793 4.16667 3.26122 4.16667 3.26451C4.16667 3.26779 4.16667 3.27108 4.16667 3.27438C4.16667 3.27767 4.16667 3.28096 4.16667 3.28425C4.16667 3.28755 4.16667 3.29084 4.16667 3.29414C4.16667 3.29743 4.16667 3.30073 4.16667 3.30403C4.16667 3.30732 4.16667 3.31062 4.16667 3.31392C4.16667 3.31722 4.16667 3.32052 4.16667 3.32383C4.16667 3.32713 4.16667 3.33043 4.16667 3.33374C4.16667 3.33704 4.16667 3.34035 4.16667 3.34365C4.16667 3.34696 4.16667 3.35027 4.16667 3.35357C4.16667 3.35688 4.16667 3.36019 4.16667 3.3635C4.16667 3.36681 4.16667 3.37012 4.16667 3.37344C4.16667 3.37675 4.16667 3.38006 4.16667 3.38337C4.16667 3.38669 4.16667 3.39 4.16667 3.39332C4.16667 3.39664 4.16667 3.39995 4.16667 3.40327C4.16667 3.40659 4.16667 3.40991 4.16667 3.41323C4.16667 3.41655 4.16667 3.41987 4.16667 3.42319C4.16667 3.42651 4.16667 3.42983 4.16667 3.43315C4.16667 3.43648 4.16667 3.4398 4.16667 3.44313C4.16667 3.44645 4.16667 3.44978 4.16667 3.4531C4.16667 3.45643 4.16667 3.45976 4.16667 3.46308C4.16667 3.46641 4.16667 3.46974 4.16667 3.47307C4.16667 3.4764 4.16667 3.47973 4.16667 3.48306C4.16667 3.48639 4.16667 3.48972 4.16667 3.49306C4.16667 3.49639 4.16667 3.49972 4.16667 3.50306C4.16667 3.50639 4.16667 3.50973 4.16667 3.51306C4.16667 3.5164 4.16667 3.51974 4.16667 3.52307C4.16667 3.52641 4.16667 3.52975 4.16667 3.53309C4.16667 3.53642 4.16667 3.53976 4.16667 3.5431C4.16667 3.54644 4.16667 3.54978 4.16667 3.55313C4.16667 3.55647 4.16667 3.55981 4.16667 3.56315C4.16667 3.56649 4.16667 3.56984 4.16667 3.57318C4.16667 3.57652 4.16667 3.57987 4.16667 3.58321C4.16667 3.58656 4.16667 3.5899 4.16667 3.59325C4.16667 3.5966 4.16667 3.59994 4.16667 3.60329C4.16667 3.60664 4.16667 3.60999 4.16667 3.61333C4.16667 3.61668 4.16667 3.62003 4.16667 3.62338C4.16667 3.62673 4.16667 3.63008 4.16667 3.63343C4.16667 3.63678 4.16667 3.64013 4.16667 3.64348C4.16667 3.64684 4.16667 3.65019 4.16667 3.65354C4.16667 3.65689 4.16667 3.66025 4.16667 3.6636C4.16667 3.66695 4.16667 3.67031 4.16667 3.67366C4.16667 3.67702 4.16667 3.68037 4.16667 3.68373C4.16667 3.68708 4.16667 3.69044 4.16667 3.6938C4.16667 3.69715 4.16667 3.70051 4.16667 3.70387C4.16667 3.70722 4.16667 3.71058 4.16667 3.71394C4.16667 3.7173 4.16667 3.72065 4.16667 3.72401C4.16667 3.72737 4.16667 3.73073 4.16667 3.73409C4.16667 3.73745 4.16667 3.74081 4.16667 3.74417C4.16667 3.74753 4.16667 3.75089 4.16667 3.75425C4.16667 3.75761 4.16667 3.76097 4.16667 3.76433C4.16667 3.76769 4.16667 3.77105 4.16667 3.77442C4.16667 3.77778 4.16667 3.78114 4.16667 3.7845C4.16667 3.78787 4.16667 3.79123 4.16667 3.79459C4.16667 3.79795 4.16667 3.80132 4.16667 3.80468C4.16667 3.80804 4.16667 3.81141 4.16667 3.81477C4.16667 3.81814 4.16667 3.8215 4.16667 3.82486C4.16667 3.82823 4.16667 3.83159 4.16667 3.83496C4.16667 3.83832 4.16667 3.84169 4.16667 3.84505C4.16667 3.84842 4.16667 3.85178 4.16667 3.85515C4.16667 3.85851 4.16667 3.86188 4.16667 3.86524C4.16667 3.86861 4.16667 3.87198 4.16667 3.87534C4.16667 3.87871 4.16667 3.88207 4.16667 3.88544C4.16667 3.88881 4.16667 3.89217 4.16667 3.89554C4.16667 3.8989 4.16667 3.90227 4.16667 3.90564C4.16667 3.909 4.16667 3.91237 4.16667 3.91574C4.16667 3.9191 4.16667 3.92247 4.16667 3.92584C4.16667 3.9292 4.16667 3.93257 4.16667 3.93594C4.16667 3.9393 4.16667 3.94267 4.16667 3.94604C4.16667 3.9494 4.16667 3.95277 4.16667 3.95614C4.16667 3.9595 4.16667 3.96287 4.16667 3.96623C4.16667 3.9696 4.16667 3.97297 4.16667 3.97633C4.16667 3.9797 4.16667 3.98307 4.16667 3.98643C4.16667 3.9898 4.16667 3.99317 4.16667 3.99653C4.16667 3.9999 4.16667 4.00326 4.16667 4.00663C4.16667 4.01 4.16667 4.01336 4.16667 4.01673C4.16667 4.02009 4.16667 4.02346 4.16667 4.02683C4.16667 4.03019 4.16667 4.03356 4.16667 4.03692C4.16667 4.04029 4.16667 4.04365 4.16667 4.04702C4.16667 4.05038 4.16667 4.05375 4.16667 4.05711C4.16667 4.06047 4.16667 4.06384 4.16667 4.0672C4.16667 4.07057 4.16667 4.07393 4.16667 4.0773C4.16667 4.08066 4.16667 4.08402 4.16667 4.08739C4.16667 4.09075 4.16667 4.09411 4.16667 4.09747C4.16667 4.10084 4.16667 4.1042 4.16667 4.10756C4.16667 4.11092 4.16667 4.11429 4.16667 4.11765C4.16667 4.12101 4.16667 4.12437 4.16667 4.12773C4.16667 4.13109 4.16667 4.13445 4.16667 4.13781C4.16667 4.14117 4.16667 4.14453 4.16667 4.14789C4.16667 4.15125 4.16667 4.15461 4.16667 4.15797C4.16667 4.16133 4.16667 4.16469 4.16667 4.16805C4.16667 4.17141 4.16667 4.17476 4.16667 4.17812C4.16667 4.18148 4.16667 4.18484 4.16667 4.18819C4.16667 4.19155 4.16667 4.19491 4.16667 4.19826C4.16667 4.20162 4.16667 4.20497 4.16667 4.20833C4.16667 4.21168 4.16667 4.21504 4.16667 4.21839C4.16667 4.22175 4.16667 4.2251 4.16667 4.22845C4.16667 4.23181 4.16667 4.23516 4.16667 4.23851C4.16667 4.24186 4.16667 4.24521 4.16667 4.24857C4.16667 4.25192 4.16667 4.25527 4.16667 4.25862C4.16667 4.26197 4.16667 4.26532 4.16667 4.26867C4.16667 4.27202 4.16667 4.27536 4.16667 4.27871C4.16667 4.28206 4.16667 4.28541 4.16667 4.28876C4.16667 4.2921 4.16667 4.29545 4.16667 4.29879C4.16667 4.30214 4.16667 4.30548 4.16667 4.30883C4.16667 4.31217 4.16667 4.31552 4.16667 4.31886C4.16667 4.3222 4.16667 4.32555 4.16667 4.32889C4.16667 4.33223 4.16667 4.33557 4.16667 4.33891C4.16667 4.34225 4.16667 4.34559 4.16667 4.34893C4.16667 4.35227 4.16667 4.35561 4.16667 4.35895C4.16667 4.36229 4.16667 4.36562 4.16667 4.36896C4.16667 4.3723 4.16667 4.37563 4.16667 4.37897C4.16667 4.3823 4.16667 4.38564 4.16667 4.38897C4.16667 4.3923 4.16667 4.39564 4.16667 4.39897C4.16667 4.4023 4.16667 4.40563 4.16667 4.40896C4.16667 4.41229 4.16667 4.41562 4.16667 4.41895C4.16667 4.42228 4.16667 4.42561 4.16667 4.42894C4.16667 4.43226 4.16667 4.43559 4.16667 4.43892C4.16667 4.44224 4.16667 4.44557 4.16667 4.44889C4.16667 4.45221 4.16667 4.45554 4.16667 4.45886C4.16667 4.46218 4.16667 4.4655 4.16667 4.46882C4.16667 4.47215 4.16667 4.47546 4.16667 4.47878C4.16667 4.4821 4.16667 4.48542 4.16667 4.48874C4.16667 4.49205 4.16667 4.49537 4.16667 4.49869C4.16667 4.502 4.16667 4.50531 4.16667 4.50863C4.16667 4.51194 4.16667 4.51525 4.16667 4.51856C4.16667 4.52188 4.16667 4.52519 4.16667 4.5285C4.16667 4.53181 4.16667 4.53511 4.16667 4.53842C4.16667 4.54173 4.16667 4.54503 4.16667 4.54834C4.16667 4.55165 4.16667 4.55495 4.16667 4.55825C4.16667 4.56156 4.16667 4.56486 4.16667 4.56816C4.16667 4.57146 4.16667 4.57476 4.16667 4.57806C4.16667 4.58136 4.16667 4.58466 4.16667 4.58795C4.16667 4.59125 4.16667 4.59455 4.16667 4.59784C4.16667 4.60114 4.16667 4.60443 4.16667 4.60772C4.16667 4.61102 4.16667 4.61431 4.16667 4.6176C4.16667 4.62089 4.16667 4.62418 4.16667 4.62746C4.16667 4.63075 4.16667 4.63404 4.16667 4.63733C4.16667 4.64061 4.16667 4.6439 4.16667 4.64718C4.16667 4.65046 4.16667 4.65374 4.16667 4.65703C4.16667 4.66031 4.16667 4.66359 4.16667 4.66686C4.16667 4.67014 4.16667 4.67342 4.16667 4.6767C4.16667 4.67997 4.16667 4.68325 4.16667 4.68652C4.16667 4.68979 4.16667 4.69307 4.16667 4.69634C4.16667 4.69961 4.16667 4.70288 4.16667 4.70615C4.16667 4.70942 4.16667 4.71268 4.16667 4.71595C4.16667 4.71921 4.16667 4.72248 4.16667 4.72574C4.16667 4.72901 4.16667 4.73227 4.16667 4.73553C4.16667 4.73879 4.16667 4.74205 4.16667 4.74531C4.16667 4.74856 4.16667 4.75182 4.16667 4.75507C4.16667 4.75833 4.16667 4.76158 4.16667 4.76484C4.16667 4.76809 4.16667 4.77134 4.16667 4.77459C4.16667 4.77784 4.16667 4.78109 4.16667 4.78433C4.16667 4.78758 4.16667 4.79083 4.16667 4.79407C4.16667 4.79731 4.16667 4.80056 4.16667 4.8038C4.16667 4.80704 4.16667 4.81028 4.16667 4.81352C4.16667 4.81675 4.16667 4.81999 4.16667 4.82323C4.16667 4.82646 4.16667 4.82969 4.16667 4.83293C4.16667 4.83616 4.16667 4.83939 4.16667 4.84262C4.16667 4.84585 4.16667 4.84908 4.16667 4.8523C4.16667 4.85553 4.16667 4.85875 4.16667 4.86198C4.16667 4.8652 4.16667 4.86842 4.16667 4.87164C4.16667 4.87486 4.16667 4.87808 4.16667 4.88129C4.16667 4.88451 4.16667 4.88773 4.16667 4.89094C4.16667 4.89415 4.16667 4.89736 4.16667 4.90057C4.16667 4.90378 4.16667 4.90699 4.16667 4.9102C4.16667 4.91341 4.16667 4.91661 4.16667 4.91982C4.16667 4.92302 4.16667 4.92622 4.16667 4.92942C4.16667 4.93262 4.16667 4.93582 4.16667 4.93902C4.16667 4.94221 4.16667 4.94541 4.16667 4.9486C4.16667 4.9518 4.16667 4.95499 4.16667 4.95818C4.16667 4.96137 4.16667 4.96456 4.16667 4.96774C4.16667 4.97093 4.16667 4.97412 4.16667 4.9773C4.16667 4.98048 4.16667 4.98366 4.16667 4.98684C4.16667 4.99002 4.16667 4.9932 4.16667 4.99638C4.16667 4.99955 4.16667 5.00273 4.16667 5.0059C4.16667 5.00907 4.16667 5.01224 4.16667 5.01541C4.16667 5.01858 4.16667 5.02175 4.16667 5.02491C4.16667 5.02808 4.16667 5.03124 4.16667 5.0344C4.16667 5.03756 4.16667 5.04072 4.16667 5.04388C4.16667 5.04704 4.16667 5.05019 4.16667 5.05335C4.16667 5.0565 4.16667 5.05965 4.16667 5.0628C4.16667 5.06595 4.16667 5.0691 4.16667 5.07225C4.16667 5.07539 4.16667 5.07854 4.16667 5.08168C4.16667 5.08482 4.16667 5.08796 4.16667 5.0911C4.16667 5.09424 4.16667 5.09738 4.16667 5.10051C4.16667 5.10364 4.16667 5.10678 4.16667 5.10991C4.16667 5.11304 4.16667 5.11617 4.16667 5.11929C4.16667 5.12242 4.16667 5.12554 4.16667 5.12867C4.16667 5.13179 4.16667 5.13491 4.16667 5.13803C4.16667 5.14115 4.16667 5.14426 4.16667 5.14738C4.16667 5.15049 4.16667 5.1536 4.16667 5.15671C4.16667 5.15982 4.16667 5.16293 4.16667 5.16604C4.16667 5.16914 4.16667 5.17225 4.16667 5.17535C4.16667 5.17845 4.16667 5.18155 4.16667 5.18465C4.16667 5.18774 4.16667 5.19084 4.16667 5.19393C4.16667 5.19703 4.16667 5.20012 4.16667 5.20321C4.16667 5.20629 4.16667 5.20938 4.16667 5.21247C4.16667 5.21555 4.16667 5.21863 4.16667 5.22171C4.16667 5.22479 4.16667 5.22787 4.16667 5.23095C4.16667 5.23402 4.16667 5.2371 4.16667 5.24017C4.16667 5.24324 4.16667 5.24631 4.16667 5.24937C4.16667 5.25244 4.16667 5.2555 4.16667 5.25857C4.16667 5.26163 4.16667 5.26469 4.16667 5.26775C4.16667 5.2708 4.16667 5.27386 4.16667 5.27691C4.16667 5.27997 4.16667 5.28302 4.16667 5.28607C4.16667 5.28911 4.16667 5.29216 4.16667 5.2952C4.16667 5.29825 4.16667 5.30129 4.16667 5.30433C4.16667 5.30737 4.16667 5.3104 4.16667 5.31344C4.16667 5.31647 4.16667 5.31951 4.16667 5.32253C4.16667 5.32556 4.16667 5.32859 4.16667 5.33162C4.16667 5.33464 4.16667 5.33766 4.16667 5.34068C4.16667 5.3437 4.16667 5.34672 4.16667 5.34974C4.16667 5.35275 4.16667 5.35576 4.16667 5.35878C4.16667 5.36179 4.16667 5.36479 4.16667 5.3678C4.16667 5.3708 4.16667 5.37381 4.16667 5.37681C4.16667 5.37981 4.16667 5.38281 4.16667 5.3858C4.16667 5.3888 4.16667 5.39179 4.16667 5.39478C4.16667 5.39777 4.16667 5.40076 4.16667 5.40374C4.16667 5.40673 4.16667 5.40971 4.16667 5.41269C4.16667 5.41567 4.16667 5.41865 4.16667 5.42162C4.16667 5.4246 4.16667 5.42757 4.16667 5.43054C4.16667 5.43351 4.16667 5.43648 4.16667 5.43944C4.16667 5.44241 4.16667 5.44537 4.16667 5.44833C4.16667 5.45129 4.16667 5.45425 4.16667 5.4572C4.16667 5.46016 4.16667 5.46311 4.16667 5.46606C4.16667 5.46901 4.16667 5.47195 4.16667 5.4749C4.16667 5.47784 4.16667 5.48078 4.16667 5.48372C4.16667 5.48666 4.16667 5.48959 4.16667 5.49252C4.16667 5.49546 4.16667 5.49839 4.16667 5.50132C4.16667 5.50424 4.16667 5.50717 4.16667 5.51009C4.16667 5.51301 4.16667 5.51593 4.16667 5.51885C4.16667 5.52176 4.16667 5.52468 4.16667 5.52759C4.16667 5.5305 4.16667 5.53341 4.16667 5.53631C4.16667 5.53922 4.16667 5.54212 4.16667 5.54502C4.16667 5.54792 4.16667 5.55082 4.16667 5.55371C4.16667 5.55661 4.16667 5.5595 4.16667 5.56239C4.16667 5.56527 4.16667 5.56816 4.16667 5.57104C4.16667 5.57393 4.16667 5.57681 4.16667 5.57968C4.16667 5.58256 4.16667 5.58543 4.16667 5.5883C4.16667 5.59118 4.16667 5.59404 4.16667 5.59691C4.16667 5.59977 4.16667 5.60264 4.16667 5.6055C4.16667 5.60836 4.16667 5.61121 4.16667 5.61407C4.16667 5.61692 4.16667 5.61977 4.16667 5.62262C4.16667 5.62547 4.16667 5.62831 4.16667 5.63115C4.16667 5.634 4.16667 5.63684 4.16667 5.63967C4.16667 5.64251 4.16667 5.64534 4.16667 5.64817C4.16667 5.651 4.16667 5.65383 4.16667 5.65665C4.16667 5.65947 4.16667 5.6623 4.16667 5.66511C4.16667 5.66793 4.16667 5.67075 4.16667 5.67356C4.16667 5.67637 4.16667 5.67918 4.16667 5.68198C4.16667 5.68479 4.16667 5.68759 4.16667 5.69039C4.16667 5.69319 4.16667 5.69599 4.16667 5.69878C4.16667 5.70157 4.16667 5.70436 4.16667 5.70715C4.16667 5.70994 4.16667 5.71272 4.16667 5.7155C4.16667 5.71828 4.16667 5.72106 4.16667 5.72383C4.16667 5.72661 4.16667 5.72938 4.16667 5.73215C4.16667 5.73492 4.16667 5.73768 4.16667 5.74044C4.16667 5.7432 4.16667 5.74596 4.16667 5.74872C4.16667 5.75147 4.16667 5.75422 4.16667 5.75697C4.16667 5.75972 4.16667 5.76247 4.16667 5.76521C4.16667 5.76795 4.16667 5.77069 4.16667 5.77343C4.16667 5.77616 4.16667 5.7789 4.16667 5.78162C4.16667 5.78435 4.16667 5.78708 4.16667 5.7898C4.16667 5.79253 4.16667 5.79524 4.16667 5.79796C4.16667 5.80068 4.16667 5.80339 4.16667 5.8061C4.16667 5.80881 4.16667 5.81151 4.16667 5.81422C4.16667 5.81692 4.16667 5.81962 4.16667 5.82232C4.16667 5.82501 4.16667 5.8277 4.16667 5.83039C4.16667 5.83308 4.16667 5.83577 4.16667 5.83845C4.16667 5.84113 4.16667 5.84381 4.16667 5.84649C4.16667 5.84916 4.16667 5.85184 4.16667 5.8545C4.16667 5.85717 4.16667 5.85984 4.16667 5.8625C4.16667 5.86516 4.16667 5.86782 4.16667 5.87048C4.16667 5.87313 4.16667 5.87578 4.16667 5.87843C4.16667 5.88108 4.16667 5.88372 4.16667 5.88636C4.16667 5.88901 4.16667 5.89164 4.16667 5.89428C4.16667 5.89691 4.16667 5.89954 4.16667 5.90217C4.16667 5.9048 4.16667 5.90742 4.16667 5.91004C4.16667 5.91266 4.16667 5.91528 4.16667 5.91789C4.16667 5.9205 4.16667 5.92311 4.16667 5.92572C4.16667 5.92832 4.16667 5.93092 4.16667 5.93352C4.16667 5.93612 4.16667 5.93871 4.16667 5.94131C4.16667 5.9439 4.16667 5.94648 4.16667 5.94907C4.16667 5.95165 4.16667 5.95423 4.16667 5.95681C4.16667 5.95939 4.16667 5.96196 4.16667 5.96453C4.16667 5.9671 4.16667 5.96966 4.16667 5.97223C4.16667 5.97479 4.16667 5.97735 4.16667 5.9799C4.16667 5.98245 4.16667 5.98501 4.16667 5.98755C4.16667 5.9901 4.16667 5.99264 4.16667 5.99518C4.16667 5.99772 4.16667 6.00026 4.16667 6.00279C4.16667 6.00532 4.16667 6.00785 4.16667 6.01038C4.16667 6.0129 4.16667 6.01542 4.16667 6.01794C4.16667 6.02046 4.16667 6.02297 4.16667 6.02548C4.16667 6.02799 4.16667 6.03049 4.16667 6.033C4.16667 6.0355 4.16667 6.038 4.16667 6.04049C4.16667 6.04298 4.16667 6.04548 4.16667 6.04796C4.16667 6.05045 4.16667 6.05293 4.16667 6.05541C4.16667 6.05789 4.16667 6.06036 4.16667 6.06283C4.16667 6.06531 4.16667 6.06777 4.16667 6.07024C4.16667 6.0727 4.16667 6.07516 4.16667 6.07761C4.16667 6.08007 4.16667 6.08252 4.16667 6.08497C4.16667 6.08742 4.16667 6.08986 4.16667 6.0923C4.16667 6.09474 4.16667 6.09717 4.16667 6.09961C4.16667 6.10204 4.16667 6.10447 4.16667 6.10689C4.16667 6.10931 4.16667 6.11173 4.16667 6.11415C4.16667 6.11656 4.16667 6.11898 4.16667 6.12138C4.16667 6.12379 4.16667 6.1262 4.16667 6.12859C4.16667 6.13099 4.16667 6.13339 4.16667 6.13578C4.16667 6.13817 4.16667 6.14056 4.16667 6.14294C4.16667 6.14533 4.16667 6.14771 4.16667 6.15008C4.16667 6.15246 4.16667 6.15483 4.16667 6.1572C4.16667 6.15956 4.16667 6.16193 4.16667 6.16428C4.16667 6.16664 4.16667 6.169 4.16667 6.17135C4.16667 6.1737 4.16667 6.17605 4.16667 6.17839C4.16667 6.18073 4.16667 6.18307 4.16667 6.1854C4.16667 6.18774 4.16667 6.19007 4.16667 6.19239C4.16667 6.19472 4.16667 6.19704 4.16667 6.19936C4.16667 6.20167 4.16667 6.20399 4.16667 6.20629C4.16667 6.2086 4.16667 6.21091 4.16667 6.21321C4.16667 6.21551 4.16667 6.2178 4.16667 6.22009C4.16667 6.22239 4.16667 6.22467 4.16667 6.22696C4.16667 6.22924 4.16667 6.23152 4.16667 6.23379C4.16667 6.23607 4.16667 6.23834 4.16667 6.2406C4.16667 6.24287 4.16667 6.24513 4.16667 6.24739C4.16667 6.24965 4.16667 6.2519 4.16667 6.25415C4.16667 6.2564 4.16667 6.25864 4.16667 6.26088C4.16667 6.26312 4.16667 6.26536 4.16667 6.26759C4.16667 6.26982 4.16667 6.27205 4.16667 6.27427C4.16667 6.27649 4.16667 6.27871 4.16667 6.28092C4.16667 6.28314 4.16667 6.28535 4.16667 6.28755C4.16667 6.28975 4.16667 6.29196 4.16667 6.29415C4.16667 6.29635 4.16667 6.29854 4.16667 6.30073C4.16667 6.30291 4.16667 6.3051 4.16667 6.30727C4.16667 6.30945 4.16667 6.31162 4.16667 6.31379C4.16667 6.31596 4.16667 6.31813 4.16667 6.32029C4.16667 6.32245 4.16667 6.3246 4.16667 6.32675C4.16667 6.32891 4.16667 6.33105 4.16667 6.33319C4.16667 6.33534 4.16667 6.33747 4.16667 6.33961C4.16667 6.34174 4.16667 6.34387 4.16667 6.34599C4.16667 6.34811 4.16667 6.35023 4.16667 6.35235C4.16667 6.35446 4.16667 6.35657 4.16667 6.35868C4.16667 6.36078 4.16667 6.36288 4.16667 6.36498C4.16667 6.36707 4.16667 6.36917 4.16667 6.37125C4.16667 6.37334 4.16667 6.37542 4.16667 6.3775C4.16667 6.37958 4.16667 6.38165 4.16667 6.38372C4.16667 6.38579 4.16667 6.38785 4.16667 6.38991C4.16667 6.39197 4.16667 6.39402 4.16667 6.39607C4.16667 6.39812 4.16667 6.40016 4.16667 6.4022C4.16667 6.40424 4.16667 6.40628 4.16667 6.40831C4.16667 6.41034 4.16667 6.41236 4.16667 6.41438C4.16667 6.4164 4.16667 6.41842 4.16667 6.42043C4.16667 6.42244 4.16667 6.42445 4.16667 6.42645C4.16667 6.42845 4.16667 6.43045 4.16667 6.43244C4.16667 6.43443 4.16667 6.43642 4.16667 6.4384C4.16667 6.44039 4.16667 6.44236 4.16667 6.44434C4.16667 6.44631 4.16667 6.44828 4.16667 6.45024C4.16667 6.4522 4.16667 6.45416 4.16667 6.45611C4.16667 6.45807 4.16667 6.46001 4.16667 6.46196C4.16667 6.4639 4.16667 6.46584 4.16667 6.46777C4.16667 6.46971 4.16667 6.47164 4.16667 6.47356C4.16667 6.47548 4.16667 6.4774 4.16667 6.47932C4.16667 6.48123 4.16667 6.48314 4.16667 6.48504C4.16667 6.48695 4.16667 6.48884 4.16667 6.49074C4.16667 6.49263 4.16667 6.49452 4.16667 6.49641C4.16667 6.49829 4.16667 6.50017 4.16667 6.50204C4.16667 6.50392 4.16667 6.50579 4.16667 6.50765C4.16667 6.50951 4.16667 6.51137 4.16667 6.51323C4.16667 6.51508 4.16667 6.51693 4.16667 6.51877C4.16667 6.52062 4.16667 6.52245 4.16667 6.52429C4.16667 6.52612 4.16667 6.52795 4.16667 6.52977C4.16667 6.5316 4.16667 6.53341 4.16667 6.53523C4.16667 6.53704 4.16667 6.53885 4.16667 6.54065C4.16667 6.54245 4.16667 6.54425 4.16667 6.54604C4.16667 6.54784 4.16667 6.54962 4.16667 6.5514C4.16667 6.55319 4.16667 6.55496 4.16667 6.55674H5.16667ZM5.16667 2.02068C5.16667 1.94936 5.2036 1.83086 5.46135 1.70331C5.71663 1.57698 6.09336 1.50001 6.5 1.50001C6.90664 1.50001 7.28337 1.57698 7.53865 1.70331C7.7964 1.83086 7.83333 1.94936 7.83333 2.02068H8.83333C8.83333 1.41156 8.41194 1.01972 7.98218 0.807048C7.54996 0.593155 7.01002 0.500012 6.5 0.500013C5.98997 0.500013 5.45004 0.593158 5.01782 0.807051C4.58806 1.01972 4.16667 1.41156 4.16667 2.02068H5.16667ZM7.83333 2.02068C7.83333 2.02334 7.83333 2.026 7.83333 2.02866C7.83333 2.03133 7.83333 2.034 7.83333 2.03667C7.83333 2.03934 7.83333 2.04201 7.83333 2.04469C7.83333 2.04737 7.83333 2.05005 7.83333 2.05274C7.83333 2.05543 7.83333 2.05811 7.83333 2.06081C7.83333 2.0635 7.83333 2.06619 7.83333 2.06889C7.83333 2.07159 7.83333 2.07429 7.83333 2.077C7.83333 2.0797 7.83333 2.08241 7.83333 2.08513C7.83333 2.08784 7.83333 2.09055 7.83333 2.09327C7.83333 2.09599 7.83333 2.09871 7.83333 2.10144C7.83333 2.10417 7.83333 2.10689 7.83333 2.10963C7.83333 2.11236 7.83333 2.11509 7.83333 2.11783C7.83333 2.12057 7.83333 2.12331 7.83333 2.12606C7.83333 2.1288 7.83333 2.13155 7.83333 2.1343C7.83333 2.13705 7.83333 2.13981 7.83333 2.14257C7.83333 2.14533 7.83333 2.14809 7.83333 2.15085C7.83333 2.21049 7.83333 2.15776 7.83333 2.2178C7.83333 2.22061 7.83333 2.22343 7.83333 2.22625C7.83333 2.22907 7.83333 2.2319 7.83333 2.23472C7.83333 2.23755 7.83333 2.24038 7.83333 2.24321C7.83333 2.24604 7.83333 2.24888 7.83333 2.25172C7.83333 2.25456 7.83333 2.2574 7.83333 2.26024C7.83333 2.26309 7.83333 2.26593 7.83333 2.26879C7.83333 2.27164 7.83333 2.27449 7.83333 2.27735C7.83333 2.2802 7.83333 2.28306 7.83333 2.28592C7.83333 2.40985 7.83333 2.43975 7.83333 2.56911C7.83333 2.69846 7.83333 2.73323 7.83333 2.8669C7.83333 2.87007 7.83333 2.87324 7.83333 2.87641C7.83333 2.87958 7.83333 2.88275 7.83333 2.88593C7.83333 2.8891 7.83333 2.89228 7.83333 2.89545C7.83333 2.89863 7.83333 2.90181 7.83333 2.90499C7.83333 2.90817 7.83333 2.91136 7.83333 2.91454C7.83333 2.91773 7.83333 2.92091 7.83333 2.9241C7.83333 2.92729 7.83333 2.93048 7.83333 2.93367C7.83333 2.93686 7.83333 2.94005 7.83333 2.94325C7.83333 2.94644 7.83333 2.94964 7.83333 2.95284C7.83333 2.95604 7.83333 2.95924 7.83333 2.96244C7.83333 2.96564 7.83333 2.96884 7.83333 2.97205C7.83333 2.97525 7.83333 2.97846 7.83333 2.98167C7.83333 2.98488 7.83333 2.98809 7.83333 2.9913C7.83333 2.99451 7.83333 2.99772 7.83333 3.00094C7.83333 3.00415 7.83333 3.00737 7.83333 3.01059C7.83333 3.01381 7.83333 3.01703 7.83333 3.02025C7.83333 3.02347 7.83333 3.02669 7.83333 3.02992C7.83333 3.03314 7.83333 3.03637 7.83333 3.03959C7.83333 3.04282 7.83333 3.04605 7.83333 3.04928C7.83333 3.05251 7.83333 3.05574 7.83333 3.05898C7.83333 3.06221 7.83333 3.06544 7.83333 3.06868C7.83333 3.07192 7.83333 3.07515 7.83333 3.07839C7.83333 3.08163 7.83333 3.08487 7.83333 3.08812C7.83333 3.09136 7.83333 3.0946 7.83333 3.09785C7.83333 3.10109 7.83333 3.10434 7.83333 3.10759C7.83333 3.11084 7.83333 3.11408 7.83333 3.11734C7.83333 3.12059 7.83333 3.12384 7.83333 3.12709C7.83333 3.13035 7.83333 3.1336 7.83333 3.13686C7.83333 3.14011 7.83333 3.14337 7.83333 3.14663C7.83333 3.14989 7.83333 3.15315 7.83333 3.15641C7.83333 3.15967 7.83333 3.16294 7.83333 3.1662C7.83333 3.16947 7.83333 3.17273 7.83333 3.176C7.83333 3.17926 7.83333 3.18253 7.83333 3.1858C7.83333 3.18907 7.83333 3.19234 7.83333 3.19562C7.83333 3.19889 7.83333 3.20216 7.83333 3.20544C7.83333 3.20871 7.83333 3.21199 7.83333 3.21526C7.83333 3.21854 7.83333 3.22182 7.83333 3.2251C7.83333 3.22838 7.83333 3.23166 7.83333 3.23494C7.83333 3.23822 7.83333 3.24151 7.83333 3.24479C7.83333 3.24807 7.83333 3.25136 7.83333 3.25465C7.83333 3.25793 7.83333 3.26122 7.83333 3.26451C7.83333 3.2678 7.83333 3.27109 7.83333 3.27438C7.83333 3.27767 7.83333 3.28096 7.83333 3.28426C7.83333 3.28755 7.83333 3.29085 7.83333 3.29414C7.83333 3.29744 7.83333 3.30073 7.83333 3.30403C7.83333 3.30733 7.83333 3.31063 7.83333 3.31393C7.83333 3.31723 7.83333 3.32053 7.83333 3.32383C7.83333 3.32713 7.83333 3.33044 7.83333 3.33374C7.83333 3.33705 7.83333 3.34035 7.83333 3.34366C7.83333 3.34696 7.83333 3.35027 7.83333 3.35358C7.83333 3.35689 7.83333 3.3602 7.83333 3.36351C7.83333 3.36682 7.83333 3.37013 7.83333 3.37344C7.83333 3.37675 7.83333 3.38007 7.83333 3.38338C7.83333 3.38669 7.83333 3.39001 7.83333 3.39332C7.83333 3.39664 7.83333 3.39996 7.83333 3.40327C7.83333 3.40659 7.83333 3.40991 7.83333 3.41323C7.83333 3.41655 7.83333 3.41987 7.83333 3.42319C7.83333 3.42651 7.83333 3.42984 7.83333 3.43316C7.83333 3.43648 7.83333 3.43981 7.83333 3.44313C7.83333 3.44646 7.83333 3.44978 7.83333 3.45311C7.83333 3.45643 7.83333 3.45976 7.83333 3.46309C7.83333 3.46642 7.83333 3.46975 7.83333 3.47308C7.83333 3.4764 7.83333 3.47974 7.83333 3.48307C7.83333 3.4864 7.83333 3.48973 7.83333 3.49306C7.83333 3.4964 7.83333 3.49973 7.83333 3.50306C7.83333 3.5064 7.83333 3.50973 7.83333 3.51307C7.83333 3.5164 7.83333 3.51974 7.83333 3.52308C7.83333 3.52641 7.83333 3.52975 7.83333 3.53309C7.83333 3.53643 7.83333 3.53977 7.83333 3.54311C7.83333 3.54645 7.83333 3.54979 7.83333 3.55313C7.83333 3.55647 7.83333 3.55981 7.83333 3.56316C7.83333 3.5665 7.83333 3.56984 7.83333 3.57318C7.83333 3.57653 7.83333 3.57987 7.83333 3.58322C7.83333 3.58656 7.83333 3.58991 7.83333 3.59325C7.83333 3.5966 7.83333 3.59995 7.83333 3.6033C7.83333 3.60664 7.83333 3.60999 7.83333 3.61334C7.83333 3.61669 7.83333 3.62004 7.83333 3.62339C7.83333 3.62674 7.83333 3.63009 7.83333 3.63344C7.83333 3.63679 7.83333 3.64014 7.83333 3.64349C7.83333 3.64684 7.83333 3.65019 7.83333 3.65355C7.83333 3.6569 7.83333 3.66025 7.83333 3.66361C7.83333 3.66696 7.83333 3.67031 7.83333 3.67367C7.83333 3.67702 7.83333 3.68038 7.83333 3.68373C7.83333 3.68709 7.83333 3.69044 7.83333 3.6938C7.83333 3.69716 7.83333 3.70051 7.83333 3.70387C7.83333 3.70723 7.83333 3.71058 7.83333 3.71394C7.83333 3.7173 7.83333 3.72066 7.83333 3.72402C7.83333 3.72738 7.83333 3.73073 7.83333 3.73409C7.83333 3.73745 7.83333 3.74081 7.83333 3.74417C7.83333 3.74753 7.83333 3.75089 7.83333 3.75425C7.83333 3.75761 7.83333 3.76098 7.83333 3.76434C7.83333 3.7677 7.83333 3.77106 7.83333 3.77442C7.83333 3.77778 7.83333 3.78115 7.83333 3.78451C7.83333 3.78787 7.83333 3.79123 7.83333 3.7946C7.83333 3.79796 7.83333 3.80132 7.83333 3.80469C7.83333 3.80805 7.83333 3.81141 7.83333 3.81478C7.83333 3.81814 7.83333 3.8215 7.83333 3.82487C7.83333 3.82823 7.83333 3.8316 7.83333 3.83496C7.83333 3.83833 7.83333 3.84169 7.83333 3.84506C7.83333 3.84842 7.83333 3.85179 7.83333 3.85515C7.83333 3.85852 7.83333 3.86188 7.83333 3.86525C7.83333 3.86861 7.83333 3.87198 7.83333 3.87535C7.83333 3.87871 7.83333 3.88208 7.83333 3.88544C7.83333 3.88881 7.83333 3.89218 7.83333 3.89554C7.83333 3.89891 7.83333 3.90227 7.83333 3.90564C7.83333 3.90901 7.83333 3.91237 7.83333 3.91574C7.83333 3.91911 7.83333 3.92247 7.83333 3.92584C7.83333 3.92921 7.83333 3.93257 7.83333 3.93594C7.83333 3.93931 7.83333 3.94267 7.83333 3.94604C7.83333 3.94941 7.83333 3.95277 7.83333 3.95614C7.83333 3.95951 7.83333 3.96287 7.83333 3.96624C7.83333 3.96961 7.83333 3.97297 7.83333 3.97634C7.83333 3.97971 7.83333 3.98307 7.83333 3.98644C7.83333 3.9898 7.83333 3.99317 7.83333 3.99654C7.83333 3.9999 7.83333 4.00327 7.83333 4.00664C7.83333 4.01 7.83333 4.01337 7.83333 4.01673C7.83333 4.0201 7.83333 4.02346 7.83333 4.02683C7.83333 4.0302 7.83333 4.03356 7.83333 4.03693C7.83333 4.04029 7.83333 4.04366 7.83333 4.04702C7.83333 4.05039 7.83333 4.05375 7.83333 4.05711C7.83333 4.06048 7.83333 4.06384 7.83333 4.06721C7.83333 4.07057 7.83333 4.07394 7.83333 4.0773C7.83333 4.08066 7.83333 4.08403 7.83333 4.08739C7.83333 4.09075 7.83333 4.09412 7.83333 4.09748C7.83333 4.10084 7.83333 4.1042 7.83333 4.10757C7.83333 4.11093 7.83333 4.11429 7.83333 4.11765C7.83333 4.12101 7.83333 4.12437 7.83333 4.12774C7.83333 4.1311 7.83333 4.13446 7.83333 4.13782C7.83333 4.14118 7.83333 4.14454 7.83333 4.1479C7.83333 4.15126 7.83333 4.15462 7.83333 4.15798C7.83333 4.16134 7.83333 4.16469 7.83333 4.16805C7.83333 4.17141 7.83333 4.17477 7.83333 4.17813C7.83333 4.18148 7.83333 4.18484 7.83333 4.1882C7.83333 4.19155 7.83333 4.19491 7.83333 4.19827C7.83333 4.20162 7.83333 4.20498 7.83333 4.20833C7.83333 4.21169 7.83333 4.21504 7.83333 4.2184C7.83333 4.22175 7.83333 4.2251 7.83333 4.22846C7.83333 4.23181 7.83333 4.23516 7.83333 4.23852C7.83333 4.24187 7.83333 4.24522 7.83333 4.24857C7.83333 4.25192 7.83333 4.25527 7.83333 4.25862C7.83333 4.26197 7.83333 4.26532 7.83333 4.26867C7.83333 4.27202 7.83333 4.27537 7.83333 4.27872C7.83333 4.28207 7.83333 4.28541 7.83333 4.28876C7.83333 4.29211 7.83333 4.29545 7.83333 4.2988C7.83333 4.30214 7.83333 4.30549 7.83333 4.30883C7.83333 4.31218 7.83333 4.31552 7.83333 4.31886C7.83333 4.32221 7.83333 4.32555 7.83333 4.32889C7.83333 4.33223 7.83333 4.33558 7.83333 4.33892C7.83333 4.34226 7.83333 4.3456 7.83333 4.34894C7.83333 4.35228 7.83333 4.35561 7.83333 4.35895C7.83333 4.36229 7.83333 4.36563 7.83333 4.36896C7.83333 4.3723 7.83333 4.37564 7.83333 4.37897C7.83333 4.38231 7.83333 4.38564 7.83333 4.38897C7.83333 4.39231 7.83333 4.39564 7.83333 4.39897C7.83333 4.40231 7.83333 4.40564 7.83333 4.40897C7.83333 4.4123 7.83333 4.41563 7.83333 4.41896C7.83333 4.42229 7.83333 4.42561 7.83333 4.42894C7.83333 4.43227 7.83333 4.43559 7.83333 4.43892C7.83333 4.44225 7.83333 4.44557 7.83333 4.44889C7.83333 4.45222 7.83333 4.45554 7.83333 4.45886C7.83333 4.46219 7.83333 4.46551 7.83333 4.46883C7.83333 4.47215 7.83333 4.47547 7.83333 4.47879C7.83333 4.48211 7.83333 4.48542 7.83333 4.48874C7.83333 4.49206 7.83333 4.49537 7.83333 4.49869C7.83333 4.502 7.83333 4.50532 7.83333 4.50863C7.83333 4.51195 7.83333 4.51526 7.83333 4.51857C7.83333 4.52188 7.83333 4.52519 7.83333 4.5285C7.83333 4.53181 7.83333 4.53512 7.83333 4.53842C7.83333 4.54173 7.83333 4.54504 7.83333 4.54834C7.83333 4.55165 7.83333 4.55495 7.83333 4.55826C7.83333 4.56156 7.83333 4.56486 7.83333 4.56816C7.83333 4.57146 7.83333 4.57476 7.83333 4.57806C7.83333 4.58136 7.83333 4.58466 7.83333 4.58796C7.83333 4.59126 7.83333 4.59455 7.83333 4.59785C7.83333 4.60114 7.83333 4.60443 7.83333 4.60773C7.83333 4.61102 7.83333 4.61431 7.83333 4.6176C7.83333 4.62089 7.83333 4.62418 7.83333 4.62747C7.83333 4.63076 7.83333 4.63404 7.83333 4.63733C7.83333 4.64061 7.83333 4.6439 7.83333 4.64718C7.83333 4.65047 7.83333 4.65375 7.83333 4.65703C7.83333 4.66031 7.83333 4.66359 7.83333 4.66687C7.83333 4.67015 7.83333 4.67342 7.83333 4.6767C7.83333 4.67998 7.83333 4.68325 7.83333 4.68652C7.83333 4.6898 7.83333 4.69307 7.83333 4.69634C7.83333 4.69961 7.83333 4.70288 7.83333 4.70615C7.83333 4.70942 7.83333 4.71269 7.83333 4.71595C7.83333 4.71922 7.83333 4.72248 7.83333 4.72575C7.83333 4.72901 7.83333 4.73227 7.83333 4.73553C7.83333 4.73879 7.83333 4.74205 7.83333 4.74531C7.83333 4.74857 7.83333 4.75182 7.83333 4.75508C7.83333 4.75833 7.83333 4.76159 7.83333 4.76484C7.83333 4.76809 7.83333 4.77134 7.83333 4.77459C7.83333 4.77784 7.83333 4.78109 7.83333 4.78434C7.83333 4.78758 7.83333 4.79083 7.83333 4.79407C7.83333 4.79732 7.83333 4.80056 7.83333 4.8038C7.83333 4.80704 7.83333 4.81028 7.83333 4.81352C7.83333 4.81676 7.83333 4.81999 7.83333 4.82323C7.83333 4.82646 7.83333 4.8297 7.83333 4.83293C7.83333 4.83616 7.83333 4.83939 7.83333 4.84262C7.83333 4.84585 7.83333 4.84908 7.83333 4.8523C7.83333 4.85553 7.83333 4.85876 7.83333 4.86198C7.83333 4.8652 7.83333 4.86842 7.83333 4.87164C7.83333 4.88881 7.83333 4.87378 7.83333 4.89094C7.83333 4.89416 7.83333 4.89737 7.83333 4.90058C7.83333 4.90379 7.83333 4.907 7.83333 4.9102C7.83333 4.91341 7.83333 4.91662 7.83333 4.91982C7.83333 4.92302 7.83333 4.92622 7.83333 4.92943C7.83333 4.93263 7.83333 4.93582 7.83333 4.93902C7.83333 4.94222 7.83333 4.94541 7.83333 4.94861C7.83333 4.9518 7.83333 4.95499 7.83333 4.95818C7.83333 4.96137 7.83333 4.96456 7.83333 4.96775C7.83333 4.97093 7.83333 4.97412 7.83333 4.9773C7.83333 4.98048 7.83333 4.98367 7.83333 4.98685C7.83333 4.99003 7.83333 4.9932 7.83333 4.99638C7.83333 4.99955 7.83333 5.00273 7.83333 5.0059C7.83333 5.00907 7.83333 5.01224 7.83333 5.01541C7.83333 5.01858 7.83333 5.02175 7.83333 5.02491C7.83333 5.02808 7.83333 5.03124 7.83333 5.0344C7.83333 5.03756 7.83333 5.04072 7.83333 5.04388C7.83333 5.04704 7.83333 5.0502 7.83333 5.05335C7.83333 5.0565 7.83333 5.05966 7.83333 5.06281C7.83333 5.06596 7.83333 5.0691 7.83333 5.07225C7.83333 5.0754 7.83333 5.07854 7.83333 5.08168C7.83333 5.08482 7.83333 5.08797 7.83333 5.0911C7.83333 5.09424 7.83333 5.09738 7.83333 5.10051C7.83333 5.10365 7.83333 5.10678 7.83333 5.10991C7.83333 5.11304 7.83333 5.11617 7.83333 5.1193C7.83333 5.12242 7.83333 5.12555 7.83333 5.12867C7.83333 5.13179 7.83333 5.13491 7.83333 5.13803C7.83333 5.14115 7.83333 5.14426 7.83333 5.14738C7.83333 5.15049 7.83333 5.1536 7.83333 5.15671C7.83333 5.15983 7.83333 5.16293 7.83333 5.16604C7.83333 5.16915 7.83333 5.17225 7.83333 5.17535C7.83333 5.17845 7.83333 5.18155 7.83333 5.18465C7.83333 5.18775 7.83333 5.19084 7.83333 5.19393C7.83333 5.19703 7.83333 5.20012 7.83333 5.20321C7.83333 5.2063 7.83333 5.20938 7.83333 5.21247C7.83333 5.21555 7.83333 5.21863 7.83333 5.22171C7.83333 5.22479 7.83333 5.22787 7.83333 5.23095C7.83333 5.23402 7.83333 5.2371 7.83333 5.24017C7.83333 5.24324 7.83333 5.24631 7.83333 5.24938C7.83333 5.25244 7.83333 5.25551 7.83333 5.25857C7.83333 5.26163 7.83333 5.26469 7.83333 5.26775C7.83333 5.27081 7.83333 5.27386 7.83333 5.27692C7.83333 5.27997 7.83333 5.28302 7.83333 5.28607C7.83333 5.28912 7.83333 5.29216 7.83333 5.29521C7.83333 5.29825 7.83333 5.30129 7.83333 5.30433C7.83333 5.30737 7.83333 5.31041 7.83333 5.31344C7.83333 5.31648 7.83333 5.31951 7.83333 5.32254C7.83333 5.32557 7.83333 5.32859 7.83333 5.33162C7.83333 5.33464 7.83333 5.33767 7.83333 5.34069C7.83333 5.34371 7.83333 5.34672 7.83333 5.34974C7.83333 5.35275 7.83333 5.35577 7.83333 5.35878C7.83333 5.36179 7.83333 5.3648 7.83333 5.3678C7.83333 5.37081 7.83333 5.37381 7.83333 5.37681C7.83333 5.50294 7.83333 5.53617 7.83333 5.65665C7.83333 5.77714 7.83333 5.80416 7.83333 5.91789C7.83333 5.9205 7.83333 5.92311 7.83333 5.92572C7.83333 5.92832 7.83333 5.93092 7.83333 5.93352C7.83333 5.93612 7.83333 5.93872 7.83333 5.94131C7.83333 5.9439 7.83333 5.94649 7.83333 5.94907C7.83333 5.95165 7.83333 5.95423 7.83333 5.95681C7.83333 5.95939 7.83333 5.96196 7.83333 5.96453C7.83333 5.9671 7.83333 5.96966 7.83333 5.97223C7.83333 5.97479 7.83333 5.97735 7.83333 5.9799C7.83333 5.98246 7.83333 5.98501 7.83333 5.98755C7.83333 5.9901 7.83333 5.99264 7.83333 5.99518C7.83333 5.99772 7.83333 6.00026 7.83333 6.00279C7.83333 6.00532 7.83333 6.00785 7.83333 6.01038C7.83333 6.0129 7.83333 6.01542 7.83333 6.01794C7.83333 6.02046 7.83333 6.02297 7.83333 6.02548C7.83333 6.02799 7.83333 6.0305 7.83333 6.033C7.83333 6.0355 7.83333 6.038 7.83333 6.04049C7.83333 6.04299 7.83333 6.04548 7.83333 6.04796C7.83333 6.05045 7.83333 6.05293 7.83333 6.05541C7.83333 6.05789 7.83333 6.06036 7.83333 6.06284C7.83333 6.06531 7.83333 6.06777 7.83333 6.07024C7.83333 6.0727 7.83333 6.07516 7.83333 6.07761C7.83333 6.08007 7.83333 6.08252 7.83333 6.08497C7.83333 6.08742 7.83333 6.08986 7.83333 6.0923C7.83333 6.09474 7.83333 6.09718 7.83333 6.09961C7.83333 6.10204 7.83333 6.10447 7.83333 6.10689C7.83333 6.10931 7.83333 6.11173 7.83333 6.11415C7.83333 6.11657 7.83333 6.11898 7.83333 6.12138C7.83333 6.12379 7.83333 6.1262 7.83333 6.1286C7.83333 6.131 7.83333 6.13339 7.83333 6.13578C7.83333 6.13817 7.83333 6.14056 7.83333 6.14294C7.83333 6.14533 7.83333 6.14771 7.83333 6.15008C7.83333 6.15246 7.83333 6.15483 7.83333 6.1572C7.83333 6.15956 7.83333 6.16193 7.83333 6.16429C7.83333 6.16664 7.83333 6.169 7.83333 6.17135C7.83333 6.1737 7.83333 6.17605 7.83333 6.17839C7.83333 6.18073 7.83333 6.18307 7.83333 6.1854C7.83333 6.18774 7.83333 6.19007 7.83333 6.19239C7.83333 6.19472 7.83333 6.19704 7.83333 6.19936C7.83333 6.20167 7.83333 6.20399 7.83333 6.20629C7.83333 6.2086 7.83333 6.21091 7.83333 6.21321C7.83333 6.21551 7.83333 6.2178 7.83333 6.2201C7.83333 6.22239 7.83333 6.22467 7.83333 6.22696C7.83333 6.22924 7.83333 6.23152 7.83333 6.23379C7.83333 6.23607 7.83333 6.23834 7.83333 6.2406C7.83333 6.24287 7.83333 6.24513 7.83333 6.24739C7.83333 6.24965 7.83333 6.2519 7.83333 6.25415C7.83333 6.2564 7.83333 6.25864 7.83333 6.26088C7.83333 6.26312 7.83333 6.26536 7.83333 6.26759C7.83333 6.26982 7.83333 6.27205 7.83333 6.27427C7.83333 6.27649 7.83333 6.27871 7.83333 6.28092C7.83333 6.28314 7.83333 6.28535 7.83333 6.28755C7.83333 6.28976 7.83333 6.29196 7.83333 6.29415C7.83333 6.29635 7.83333 6.29854 7.83333 6.30073C7.83333 6.30291 7.83333 6.3051 7.83333 6.30727C7.83333 6.30945 7.83333 6.31163 7.83333 6.31379C7.83333 6.31596 7.83333 6.31813 7.83333 6.32029C7.83333 6.32245 7.83333 6.3246 7.83333 6.32675C7.83333 6.32891 7.83333 6.33105 7.83333 6.33319C7.83333 6.33534 7.83333 6.33747 7.83333 6.33961C7.83333 6.34174 7.83333 6.34387 7.83333 6.34599C7.83333 6.34811 7.83333 6.35023 7.83333 6.35235C7.83333 6.35446 7.83333 6.35657 7.83333 6.35868C7.83333 6.36078 7.83333 6.36288 7.83333 6.36498C7.83333 6.36707 7.83333 6.36917 7.83333 6.37125C7.83333 6.37334 7.83333 6.37542 7.83333 6.3775C7.83333 6.37958 7.83333 6.38165 7.83333 6.38372C7.83333 6.38579 7.83333 6.38785 7.83333 6.38991C7.83333 6.39197 7.83333 6.39402 7.83333 6.39607C7.83333 6.39812 7.83333 6.40016 7.83333 6.4022C7.83333 6.40424 7.83333 6.40628 7.83333 6.40831C7.83333 6.41034 7.83333 6.41236 7.83333 6.41438C7.83333 6.4164 7.83333 6.41842 7.83333 6.42043C7.83333 6.42244 7.83333 6.42445 7.83333 6.42645C7.83333 6.42845 7.83333 6.43045 7.83333 6.43244C7.83333 6.43443 7.83333 6.43642 7.83333 6.4384C7.83333 6.44039 7.83333 6.44236 7.83333 6.44434C7.83333 6.44631 7.83333 6.44828 7.83333 6.45024C7.83333 6.4522 7.83333 6.45416 7.83333 6.45611C7.83333 6.45807 7.83333 6.46001 7.83333 6.46196C7.83333 6.4639 7.83333 6.46584 7.83333 6.46777C7.83333 6.46971 7.83333 6.47164 7.83333 6.47356C7.83333 6.47548 7.83333 6.4774 7.83333 6.47932C7.83333 6.48123 7.83333 6.48314 7.83333 6.48504C7.83333 6.48695 7.83333 6.48885 7.83333 6.49074C7.83333 6.49263 7.83333 6.49452 7.83333 6.49641C7.83333 6.49829 7.83333 6.50017 7.83333 6.50204C7.83333 6.50392 7.83333 6.50579 7.83333 6.50765C7.83333 6.50951 7.83333 6.51137 7.83333 6.51323C7.83333 6.51508 7.83333 6.51693 7.83333 6.51877C7.83333 6.52062 7.83333 6.52245 7.83333 6.52429C7.83333 6.52612 7.83333 6.52795 7.83333 6.52977C7.83333 6.5316 7.83333 6.53341 7.83333 6.53523C7.83333 6.53704 7.83333 6.53885 7.83333 6.54065C7.83333 6.54245 7.83333 6.54425 7.83333 6.54604C7.83333 6.54784 7.83333 6.54962 7.83333 6.5514C7.83333 6.55319 7.83333 6.55496 7.83333 6.55674H8.83333C8.83333 6.55496 8.83333 6.55319 8.83333 6.5514C8.83333 6.54962 8.83333 6.54784 8.83333 6.54604C8.83333 6.54425 8.83333 6.54245 8.83333 6.54065C8.83333 6.53885 8.83333 6.53704 8.83333 6.53523C8.83333 6.53341 8.83333 6.5316 8.83333 6.52977C8.83333 6.52795 8.83333 6.52612 8.83333 6.52429C8.83333 6.52245 8.83333 6.52062 8.83333 6.51877C8.83333 6.51693 8.83333 6.51508 8.83333 6.51323C8.83333 6.51137 8.83333 6.50951 8.83333 6.50765C8.83333 6.50579 8.83333 6.50392 8.83333 6.50204C8.83333 6.50017 8.83333 6.49829 8.83333 6.49641C8.83333 6.49452 8.83333 6.49263 8.83333 6.49074C8.83333 6.48885 8.83333 6.48695 8.83333 6.48504C8.83333 6.48314 8.83333 6.48123 8.83333 6.47932C8.83333 6.4774 8.83333 6.47548 8.83333 6.47356C8.83333 6.47164 8.83333 6.46971 8.83333 6.46777C8.83333 6.46584 8.83333 6.4639 8.83333 6.46196C8.83333 6.46001 8.83333 6.45807 8.83333 6.45611C8.83333 6.45416 8.83333 6.4522 8.83333 6.45024C8.83333 6.44828 8.83333 6.44631 8.83333 6.44434C8.83333 6.44236 8.83333 6.44039 8.83333 6.4384C8.83333 6.43642 8.83333 6.43443 8.83333 6.43244C8.83333 6.43045 8.83333 6.42845 8.83333 6.42645C8.83333 6.42445 8.83333 6.42244 8.83333 6.42043C8.83333 6.41842 8.83333 6.4164 8.83333 6.41438C8.83333 6.41236 8.83333 6.41034 8.83333 6.40831C8.83333 6.40628 8.83333 6.40424 8.83333 6.4022C8.83333 6.40016 8.83333 6.39812 8.83333 6.39607C8.83333 6.39402 8.83333 6.39197 8.83333 6.38991C8.83333 6.38785 8.83333 6.38579 8.83333 6.38372C8.83333 6.38165 8.83333 6.37958 8.83333 6.3775C8.83333 6.37542 8.83333 6.37334 8.83333 6.37125C8.83333 6.36917 8.83333 6.36707 8.83333 6.36498C8.83333 6.36288 8.83333 6.36078 8.83333 6.35868C8.83333 6.35657 8.83333 6.35446 8.83333 6.35235C8.83333 6.35023 8.83333 6.34811 8.83333 6.34599C8.83333 6.34387 8.83333 6.34174 8.83333 6.33961C8.83333 6.33747 8.83333 6.33534 8.83333 6.33319C8.83333 6.33105 8.83333 6.32891 8.83333 6.32675C8.83333 6.3246 8.83333 6.32245 8.83333 6.32029C8.83333 6.31813 8.83333 6.31596 8.83333 6.31379C8.83333 6.31163 8.83333 6.30945 8.83333 6.30727C8.83333 6.3051 8.83333 6.30291 8.83333 6.30073C8.83333 6.29854 8.83333 6.29635 8.83333 6.29415C8.83333 6.29196 8.83333 6.28976 8.83333 6.28755C8.83333 6.28535 8.83333 6.28314 8.83333 6.28092C8.83333 6.27871 8.83333 6.27649 8.83333 6.27427C8.83333 6.27205 8.83333 6.26982 8.83333 6.26759C8.83333 6.26536 8.83333 6.26312 8.83333 6.26088C8.83333 6.25864 8.83333 6.2564 8.83333 6.25415C8.83333 6.2519 8.83333 6.24965 8.83333 6.24739C8.83333 6.24513 8.83333 6.24287 8.83333 6.2406C8.83333 6.23834 8.83333 6.23607 8.83333 6.23379C8.83333 6.23152 8.83333 6.22924 8.83333 6.22696C8.83333 6.22467 8.83333 6.22239 8.83333 6.2201C8.83333 6.2178 8.83333 6.21551 8.83333 6.21321C8.83333 6.21091 8.83333 6.2086 8.83333 6.20629C8.83333 6.20399 8.83333 6.20167 8.83333 6.19936C8.83333 6.19704 8.83333 6.19472 8.83333 6.19239C8.83333 6.19007 8.83333 6.18774 8.83333 6.1854C8.83333 6.18307 8.83333 6.18073 8.83333 6.17839C8.83333 6.17605 8.83333 6.1737 8.83333 6.17135C8.83333 6.169 8.83333 6.16664 8.83333 6.16429C8.83333 6.16193 8.83333 6.15956 8.83333 6.1572C8.83333 6.15483 8.83333 6.15246 8.83333 6.15008C8.83333 6.14771 8.83333 6.14533 8.83333 6.14294C8.83333 6.14056 8.83333 6.13817 8.83333 6.13578C8.83333 6.13339 8.83333 6.131 8.83333 6.1286C8.83333 6.1262 8.83333 6.12379 8.83333 6.12138C8.83333 6.11898 8.83333 6.11657 8.83333 6.11415C8.83333 6.11173 8.83333 6.10931 8.83333 6.10689C8.83333 6.10447 8.83333 6.10204 8.83333 6.09961C8.83333 6.09718 8.83333 6.09474 8.83333 6.0923C8.83333 6.08986 8.83333 6.08742 8.83333 6.08497C8.83333 6.08252 8.83333 6.08007 8.83333 6.07761C8.83333 6.07516 8.83333 6.0727 8.83333 6.07024C8.83333 6.06777 8.83333 6.06531 8.83333 6.06284C8.83333 6.06036 8.83333 6.05789 8.83333 6.05541C8.83333 6.05293 8.83333 6.05045 8.83333 6.04796C8.83333 6.04548 8.83333 6.04299 8.83333 6.04049C8.83333 6.038 8.83333 6.0355 8.83333 6.033C8.83333 6.0305 8.83333 6.02799 8.83333 6.02548C8.83333 6.02297 8.83333 6.02046 8.83333 6.01794C8.83333 6.01542 8.83333 6.0129 8.83333 6.01038C8.83333 6.00785 8.83333 6.00532 8.83333 6.00279C8.83333 6.00026 8.83333 5.99772 8.83333 5.99518C8.83333 5.99264 8.83333 5.9901 8.83333 5.98755C8.83333 5.98501 8.83333 5.98246 8.83333 5.9799C8.83333 5.97735 8.83333 5.97479 8.83333 5.97223C8.83333 5.96966 8.83333 5.9671 8.83333 5.96453C8.83333 5.96196 8.83333 5.95939 8.83333 5.95681C8.83333 5.95423 8.83333 5.95165 8.83333 5.94907C8.83333 5.94649 8.83333 5.9439 8.83333 5.94131C8.83333 5.93872 8.83333 5.93612 8.83333 5.93352C8.83333 5.93092 8.83333 5.92832 8.83333 5.92572C8.83333 5.92311 8.83333 5.9205 8.83333 5.91789C8.83333 5.80416 8.83333 5.77714 8.83333 5.65665C8.83333 5.53617 8.83333 5.50294 8.83333 5.37681C8.83333 5.37381 8.83333 5.37081 8.83333 5.3678C8.83333 5.3648 8.83333 5.36179 8.83333 5.35878C8.83333 5.35577 8.83333 5.35275 8.83333 5.34974C8.83333 5.34672 8.83333 5.34371 8.83333 5.34069C8.83333 5.33767 8.83333 5.33464 8.83333 5.33162C8.83333 5.32859 8.83333 5.32557 8.83333 5.32254C8.83333 5.31951 8.83333 5.31648 8.83333 5.31344C8.83333 5.31041 8.83333 5.30737 8.83333 5.30433C8.83333 5.30129 8.83333 5.29825 8.83333 5.29521C8.83333 5.29216 8.83333 5.28912 8.83333 5.28607C8.83333 5.28302 8.83333 5.27997 8.83333 5.27692C8.83333 5.27386 8.83333 5.27081 8.83333 5.26775C8.83333 5.26469 8.83333 5.26163 8.83333 5.25857C8.83333 5.25551 8.83333 5.25244 8.83333 5.24938C8.83333 5.24631 8.83333 5.24324 8.83333 5.24017C8.83333 5.2371 8.83333 5.23402 8.83333 5.23095C8.83333 5.22787 8.83333 5.22479 8.83333 5.22171C8.83333 5.21863 8.83333 5.21555 8.83333 5.21247C8.83333 5.20938 8.83333 5.2063 8.83333 5.20321C8.83333 5.20012 8.83333 5.19703 8.83333 5.19393C8.83333 5.19084 8.83333 5.18775 8.83333 5.18465C8.83333 5.18155 8.83333 5.17845 8.83333 5.17535C8.83333 5.17225 8.83333 5.16915 8.83333 5.16604C8.83333 5.16293 8.83333 5.15983 8.83333 5.15671C8.83333 5.1536 8.83333 5.15049 8.83333 5.14738C8.83333 5.14426 8.83333 5.14115 8.83333 5.13803C8.83333 5.13491 8.83333 5.13179 8.83333 5.12867C8.83333 5.12555 8.83333 5.12242 8.83333 5.1193C8.83333 5.11617 8.83333 5.11304 8.83333 5.10991C8.83333 5.10678 8.83333 5.10365 8.83333 5.10051C8.83333 5.09738 8.83333 5.09424 8.83333 5.0911C8.83333 5.08797 8.83333 5.08482 8.83333 5.08168C8.83333 5.07854 8.83333 5.0754 8.83333 5.07225C8.83333 5.0691 8.83333 5.06596 8.83333 5.06281C8.83333 5.05966 8.83333 5.0565 8.83333 5.05335C8.83333 5.0502 8.83333 5.04704 8.83333 5.04388C8.83333 5.04072 8.83333 5.03756 8.83333 5.0344C8.83333 5.03124 8.83333 5.02808 8.83333 5.02491C8.83333 5.02175 8.83333 5.01858 8.83333 5.01541C8.83333 5.01224 8.83333 5.00907 8.83333 5.0059C8.83333 5.00273 8.83333 4.99955 8.83333 4.99638C8.83333 4.9932 8.83333 4.99003 8.83333 4.98685C8.83333 4.98367 8.83333 4.98048 8.83333 4.9773C8.83333 4.97412 8.83333 4.97093 8.83333 4.96775C8.83333 4.96456 8.83333 4.96137 8.83333 4.95818C8.83333 4.95499 8.83333 4.9518 8.83333 4.94861C8.83333 4.94541 8.83333 4.94222 8.83333 4.93902C8.83333 4.93582 8.83333 4.93263 8.83333 4.92943C8.83333 4.92622 8.83333 4.92302 8.83333 4.91982C8.83333 4.91662 8.83333 4.91341 8.83333 4.9102C8.83333 4.907 8.83333 4.90379 8.83333 4.90058C8.83333 4.89737 8.83333 4.89416 8.83333 4.89094C8.83333 4.87378 8.83333 4.88881 8.83333 4.87164C8.83333 4.86842 8.83333 4.8652 8.83333 4.86198C8.83333 4.85876 8.83333 4.85553 8.83333 4.8523C8.83333 4.84908 8.83333 4.84585 8.83333 4.84262C8.83333 4.83939 8.83333 4.83616 8.83333 4.83293C8.83333 4.8297 8.83333 4.82646 8.83333 4.82323C8.83333 4.81999 8.83333 4.81676 8.83333 4.81352C8.83333 4.81028 8.83333 4.80704 8.83333 4.8038C8.83333 4.80056 8.83333 4.79732 8.83333 4.79407C8.83333 4.79083 8.83333 4.78758 8.83333 4.78434C8.83333 4.78109 8.83333 4.77784 8.83333 4.77459C8.83333 4.77134 8.83333 4.76809 8.83333 4.76484C8.83333 4.76159 8.83333 4.75833 8.83333 4.75508C8.83333 4.75182 8.83333 4.74857 8.83333 4.74531C8.83333 4.74205 8.83333 4.73879 8.83333 4.73553C8.83333 4.73227 8.83333 4.72901 8.83333 4.72575C8.83333 4.72248 8.83333 4.71922 8.83333 4.71595C8.83333 4.71269 8.83333 4.70942 8.83333 4.70615C8.83333 4.70288 8.83333 4.69961 8.83333 4.69634C8.83333 4.69307 8.83333 4.6898 8.83333 4.68652C8.83333 4.68325 8.83333 4.67998 8.83333 4.6767C8.83333 4.67342 8.83333 4.67015 8.83333 4.66687C8.83333 4.66359 8.83333 4.66031 8.83333 4.65703C8.83333 4.65375 8.83333 4.65047 8.83333 4.64718C8.83333 4.6439 8.83333 4.64061 8.83333 4.63733C8.83333 4.63404 8.83333 4.63076 8.83333 4.62747C8.83333 4.62418 8.83333 4.62089 8.83333 4.6176C8.83333 4.61431 8.83333 4.61102 8.83333 4.60773C8.83333 4.60443 8.83333 4.60114 8.83333 4.59785C8.83333 4.59455 8.83333 4.59126 8.83333 4.58796C8.83333 4.58466 8.83333 4.58136 8.83333 4.57806C8.83333 4.57476 8.83333 4.57146 8.83333 4.56816C8.83333 4.56486 8.83333 4.56156 8.83333 4.55826C8.83333 4.55495 8.83333 4.55165 8.83333 4.54834C8.83333 4.54504 8.83333 4.54173 8.83333 4.53842C8.83333 4.53512 8.83333 4.53181 8.83333 4.5285C8.83333 4.52519 8.83333 4.52188 8.83333 4.51857C8.83333 4.51526 8.83333 4.51195 8.83333 4.50863C8.83333 4.50532 8.83333 4.502 8.83333 4.49869C8.83333 4.49537 8.83333 4.49206 8.83333 4.48874C8.83333 4.48542 8.83333 4.48211 8.83333 4.47879C8.83333 4.47547 8.83333 4.47215 8.83333 4.46883C8.83333 4.46551 8.83333 4.46219 8.83333 4.45886C8.83333 4.45554 8.83333 4.45222 8.83333 4.44889C8.83333 4.44557 8.83333 4.44225 8.83333 4.43892C8.83333 4.43559 8.83333 4.43227 8.83333 4.42894C8.83333 4.42561 8.83333 4.42229 8.83333 4.41896C8.83333 4.41563 8.83333 4.4123 8.83333 4.40897C8.83333 4.40564 8.83333 4.40231 8.83333 4.39897C8.83333 4.39564 8.83333 4.39231 8.83333 4.38897C8.83333 4.38564 8.83333 4.38231 8.83333 4.37897C8.83333 4.37564 8.83333 4.3723 8.83333 4.36896C8.83333 4.36563 8.83333 4.36229 8.83333 4.35895C8.83333 4.35561 8.83333 4.35228 8.83333 4.34894C8.83333 4.3456 8.83333 4.34226 8.83333 4.33892C8.83333 4.33558 8.83333 4.33223 8.83333 4.32889C8.83333 4.32555 8.83333 4.32221 8.83333 4.31886C8.83333 4.31552 8.83333 4.31218 8.83333 4.30883C8.83333 4.30549 8.83333 4.30214 8.83333 4.2988C8.83333 4.29545 8.83333 4.29211 8.83333 4.28876C8.83333 4.28541 8.83333 4.28207 8.83333 4.27872C8.83333 4.27537 8.83333 4.27202 8.83333 4.26867C8.83333 4.26532 8.83333 4.26197 8.83333 4.25862C8.83333 4.25527 8.83333 4.25192 8.83333 4.24857C8.83333 4.24522 8.83333 4.24187 8.83333 4.23852C8.83333 4.23516 8.83333 4.23181 8.83333 4.22846C8.83333 4.2251 8.83333 4.22175 8.83333 4.2184C8.83333 4.21504 8.83333 4.21169 8.83333 4.20833C8.83333 4.20498 8.83333 4.20162 8.83333 4.19827C8.83333 4.19491 8.83333 4.19155 8.83333 4.1882C8.83333 4.18484 8.83333 4.18148 8.83333 4.17813C8.83333 4.17477 8.83333 4.17141 8.83333 4.16805C8.83333 4.16469 8.83333 4.16134 8.83333 4.15798C8.83333 4.15462 8.83333 4.15126 8.83333 4.1479C8.83333 4.14454 8.83333 4.14118 8.83333 4.13782C8.83333 4.13446 8.83333 4.1311 8.83333 4.12774C8.83333 4.12437 8.83333 4.12101 8.83333 4.11765C8.83333 4.11429 8.83333 4.11093 8.83333 4.10757C8.83333 4.1042 8.83333 4.10084 8.83333 4.09748C8.83333 4.09412 8.83333 4.09075 8.83333 4.08739C8.83333 4.08403 8.83333 4.08066 8.83333 4.0773C8.83333 4.07394 8.83333 4.07057 8.83333 4.06721C8.83333 4.06384 8.83333 4.06048 8.83333 4.05711C8.83333 4.05375 8.83333 4.05039 8.83333 4.04702C8.83333 4.04366 8.83333 4.04029 8.83333 4.03693C8.83333 4.03356 8.83333 4.0302 8.83333 4.02683C8.83333 4.02346 8.83333 4.0201 8.83333 4.01673C8.83333 4.01337 8.83333 4.01 8.83333 4.00664C8.83333 4.00327 8.83333 3.9999 8.83333 3.99654C8.83333 3.99317 8.83333 3.9898 8.83333 3.98644C8.83333 3.98307 8.83333 3.97971 8.83333 3.97634C8.83333 3.97297 8.83333 3.96961 8.83333 3.96624C8.83333 3.96287 8.83333 3.95951 8.83333 3.95614C8.83333 3.95277 8.83333 3.94941 8.83333 3.94604C8.83333 3.94267 8.83333 3.93931 8.83333 3.93594C8.83333 3.93257 8.83333 3.92921 8.83333 3.92584C8.83333 3.92247 8.83333 3.91911 8.83333 3.91574C8.83333 3.91237 8.83333 3.90901 8.83333 3.90564C8.83333 3.90227 8.83333 3.89891 8.83333 3.89554C8.83333 3.89218 8.83333 3.88881 8.83333 3.88544C8.83333 3.88208 8.83333 3.87871 8.83333 3.87535C8.83333 3.87198 8.83333 3.86861 8.83333 3.86525C8.83333 3.86188 8.83333 3.85852 8.83333 3.85515C8.83333 3.85179 8.83333 3.84842 8.83333 3.84506C8.83333 3.84169 8.83333 3.83833 8.83333 3.83496C8.83333 3.8316 8.83333 3.82823 8.83333 3.82487C8.83333 3.8215 8.83333 3.81814 8.83333 3.81478C8.83333 3.81141 8.83333 3.80805 8.83333 3.80469C8.83333 3.80132 8.83333 3.79796 8.83333 3.7946C8.83333 3.79123 8.83333 3.78787 8.83333 3.78451C8.83333 3.78115 8.83333 3.77778 8.83333 3.77442C8.83333 3.77106 8.83333 3.7677 8.83333 3.76434C8.83333 3.76098 8.83333 3.75761 8.83333 3.75425C8.83333 3.75089 8.83333 3.74753 8.83333 3.74417C8.83333 3.74081 8.83333 3.73745 8.83333 3.73409C8.83333 3.73073 8.83333 3.72738 8.83333 3.72402C8.83333 3.72066 8.83333 3.7173 8.83333 3.71394C8.83333 3.71058 8.83333 3.70723 8.83333 3.70387C8.83333 3.70051 8.83333 3.69716 8.83333 3.6938C8.83333 3.69044 8.83333 3.68709 8.83333 3.68373C8.83333 3.68038 8.83333 3.67702 8.83333 3.67367C8.83333 3.67031 8.83333 3.66696 8.83333 3.66361C8.83333 3.66025 8.83333 3.6569 8.83333 3.65355C8.83333 3.65019 8.83333 3.64684 8.83333 3.64349C8.83333 3.64014 8.83333 3.63679 8.83333 3.63344C8.83333 3.63009 8.83333 3.62674 8.83333 3.62339C8.83333 3.62004 8.83333 3.61669 8.83333 3.61334C8.83333 3.60999 8.83333 3.60664 8.83333 3.6033C8.83333 3.59995 8.83333 3.5966 8.83333 3.59325C8.83333 3.58991 8.83333 3.58656 8.83333 3.58322C8.83333 3.57987 8.83333 3.57653 8.83333 3.57318C8.83333 3.56984 8.83333 3.5665 8.83333 3.56316C8.83333 3.55981 8.83333 3.55647 8.83333 3.55313C8.83333 3.54979 8.83333 3.54645 8.83333 3.54311C8.83333 3.53977 8.83333 3.53643 8.83333 3.53309C8.83333 3.52975 8.83333 3.52641 8.83333 3.52308C8.83333 3.51974 8.83333 3.5164 8.83333 3.51307C8.83333 3.50973 8.83333 3.5064 8.83333 3.50306C8.83333 3.49973 8.83333 3.4964 8.83333 3.49306C8.83333 3.48973 8.83333 3.4864 8.83333 3.48307C8.83333 3.47974 8.83333 3.4764 8.83333 3.47308C8.83333 3.46975 8.83333 3.46642 8.83333 3.46309C8.83333 3.45976 8.83333 3.45643 8.83333 3.45311C8.83333 3.44978 8.83333 3.44646 8.83333 3.44313C8.83333 3.43981 8.83333 3.43648 8.83333 3.43316C8.83333 3.42984 8.83333 3.42651 8.83333 3.42319C8.83333 3.41987 8.83333 3.41655 8.83333 3.41323C8.83333 3.40991 8.83333 3.40659 8.83333 3.40327C8.83333 3.39996 8.83333 3.39664 8.83333 3.39332C8.83333 3.39001 8.83333 3.38669 8.83333 3.38338C8.83333 3.38007 8.83333 3.37675 8.83333 3.37344C8.83333 3.37013 8.83333 3.36682 8.83333 3.36351C8.83333 3.3602 8.83333 3.35689 8.83333 3.35358C8.83333 3.35027 8.83333 3.34696 8.83333 3.34366C8.83333 3.34035 8.83333 3.33705 8.83333 3.33374C8.83333 3.33044 8.83333 3.32713 8.83333 3.32383C8.83333 3.32053 8.83333 3.31723 8.83333 3.31393C8.83333 3.31063 8.83333 3.30733 8.83333 3.30403C8.83333 3.30073 8.83333 3.29744 8.83333 3.29414C8.83333 3.29085 8.83333 3.28755 8.83333 3.28426C8.83333 3.28096 8.83333 3.27767 8.83333 3.27438C8.83333 3.27109 8.83333 3.2678 8.83333 3.26451C8.83333 3.26122 8.83333 3.25793 8.83333 3.25465C8.83333 3.25136 8.83333 3.24807 8.83333 3.24479C8.83333 3.24151 8.83333 3.23822 8.83333 3.23494C8.83333 3.23166 8.83333 3.22838 8.83333 3.2251C8.83333 3.22182 8.83333 3.21854 8.83333 3.21526C8.83333 3.21199 8.83333 3.20871 8.83333 3.20544C8.83333 3.20216 8.83333 3.19889 8.83333 3.19562C8.83333 3.19234 8.83333 3.18907 8.83333 3.1858C8.83333 3.18253 8.83333 3.17926 8.83333 3.176C8.83333 3.17273 8.83333 3.16947 8.83333 3.1662C8.83333 3.16294 8.83333 3.15967 8.83333 3.15641C8.83333 3.15315 8.83333 3.14989 8.83333 3.14663C8.83333 3.14337 8.83333 3.14011 8.83333 3.13686C8.83333 3.1336 8.83333 3.13035 8.83333 3.12709C8.83333 3.12384 8.83333 3.12059 8.83333 3.11734C8.83333 3.11408 8.83333 3.11084 8.83333 3.10759C8.83333 3.10434 8.83333 3.10109 8.83333 3.09785C8.83333 3.0946 8.83333 3.09136 8.83333 3.08812C8.83333 3.08487 8.83333 3.08163 8.83333 3.07839C8.83333 3.07515 8.83333 3.07192 8.83333 3.06868C8.83333 3.06544 8.83333 3.06221 8.83333 3.05898C8.83333 3.05574 8.83333 3.05251 8.83333 3.04928C8.83333 3.04605 8.83333 3.04282 8.83333 3.03959C8.83333 3.03637 8.83333 3.03314 8.83333 3.02992C8.83333 3.02669 8.83333 3.02347 8.83333 3.02025C8.83333 3.01703 8.83333 3.01381 8.83333 3.01059C8.83333 3.00737 8.83333 3.00415 8.83333 3.00094C8.83333 2.99772 8.83333 2.99451 8.83333 2.9913C8.83333 2.98809 8.83333 2.98488 8.83333 2.98167C8.83333 2.97846 8.83333 2.97525 8.83333 2.97205C8.83333 2.96884 8.83333 2.96564 8.83333 2.96244C8.83333 2.95924 8.83333 2.95604 8.83333 2.95284C8.83333 2.94964 8.83333 2.94644 8.83333 2.94325C8.83333 2.94005 8.83333 2.93686 8.83333 2.93367C8.83333 2.93048 8.83333 2.92729 8.83333 2.9241C8.83333 2.92091 8.83333 2.91773 8.83333 2.91454C8.83333 2.91136 8.83333 2.90817 8.83333 2.90499C8.83333 2.90181 8.83333 2.89863 8.83333 2.89545C8.83333 2.89228 8.83333 2.8891 8.83333 2.88593C8.83333 2.88275 8.83333 2.87958 8.83333 2.87641C8.83333 2.87324 8.83333 2.87007 8.83333 2.8669C8.83333 2.73323 8.83333 2.69846 8.83333 2.56911C8.83333 2.43975 8.83333 2.40985 8.83333 2.28592C8.83333 2.28306 8.83333 2.2802 8.83333 2.27735C8.83333 2.27449 8.83333 2.27164 8.83333 2.26879C8.83333 2.26593 8.83333 2.26309 8.83333 2.26024C8.83333 2.2574 8.83333 2.25456 8.83333 2.25172C8.83333 2.24888 8.83333 2.24604 8.83333 2.24321C8.83333 2.24038 8.83333 2.23755 8.83333 2.23472C8.83333 2.2319 8.83333 2.22907 8.83333 2.22625C8.83333 2.22343 8.83333 2.22061 8.83333 2.2178C8.83333 2.18795 8.83333 2.21393 8.83333 2.18418C8.83333 2.18139 8.83333 2.1786 8.83333 2.17582C8.83333 2.17303 8.83333 2.17025 8.83333 2.16748C8.83333 2.1647 8.83333 2.16192 8.83333 2.15915C8.83333 2.15638 8.83333 2.15362 8.83333 2.15085C8.83333 2.14809 8.83333 2.14533 8.83333 2.14257C8.83333 2.13981 8.83333 2.13705 8.83333 2.1343C8.83333 2.13155 8.83333 2.1288 8.83333 2.12606C8.83333 2.12331 8.83333 2.12057 8.83333 2.11783C8.83333 2.11509 8.83333 2.11236 8.83333 2.10963C8.83333 2.10689 8.83333 2.10417 8.83333 2.10144C8.83333 2.09871 8.83333 2.09599 8.83333 2.09327C8.83333 2.09055 8.83333 2.08784 8.83333 2.08513C8.83333 2.08241 8.83333 2.0797 8.83333 2.077C8.83333 2.07429 8.83333 2.07159 8.83333 2.06889C8.83333 2.06619 8.83333 2.0635 8.83333 2.06081C8.83333 2.05811 8.83333 2.05543 8.83333 2.05274C8.83333 2.05005 8.83333 2.04737 8.83333 2.04469C8.83333 2.04201 8.83333 2.03934 8.83333 2.03667C8.83333 2.034 8.83333 2.03133 8.83333 2.02866C8.83333 2.026 8.83333 2.02334 8.83333 2.02068H7.83333ZM7.83333 6.55674C7.83333 6.48047 7.87797 6.45136 7.85235 6.47309C7.82032 6.50026 7.74411 6.54588 7.60378 6.59217C7.32703 6.68346 6.92577 6.73709 6.5 6.73709C6.07423 6.73709 5.67297 6.68346 5.39622 6.59217C5.25589 6.54588 5.17968 6.50026 5.14765 6.47309C5.12203 6.45136 5.16667 6.48047 5.16667 6.55674H4.16667C4.16667 6.85979 4.32589 7.08734 4.50079 7.23569C4.66928 7.37862 4.87953 7.47473 5.08295 7.54184C5.49369 7.67733 6.0091 7.73709 6.5 7.73709C6.9909 7.73709 7.50631 7.67733 7.91705 7.54184C8.12047 7.47473 8.33072 7.37862 8.49921 7.23569C8.67411 7.08734 8.83333 6.85979 8.83333 6.55674H7.83333ZM0.552507 6.77978C1.21381 8.10653 1.924 8.97316 2.92232 9.43662C3.90134 9.89112 5.07318 9.91579 6.54716 9.77614L6.45284 8.7806C5.0029 8.91797 4.06385 8.86406 3.3434 8.5296C2.64226 8.2041 2.06441 7.5714 1.44749 6.33369L0.552507 6.77978ZM6.45677 9.77649C7.98479 9.90912 9.19036 9.88182 10.1711 9.42804C11.1792 8.96156 11.8609 8.0897 12.4563 6.76121L11.5437 6.35227C10.9945 7.57775 10.4466 8.19867 9.75113 8.52049C9.02814 8.85501 8.05595 8.91154 6.54323 8.78024L6.45677 9.77649ZM6 9.27837V12H7V9.27837H6Z" fill="white"/>
</svg>
