<svg width="15" height="15" viewBox="0 0 15 15" fill="none" xmlns="http://www.w3.org/2000/svg">
<path fill-rule="evenodd" clip-rule="evenodd" d="M7.5 9.41188C10.7195 9.41188 15 9.70076 15 12.1999C15 14.8326 10.0123 14.9905 7.87283 15L7.09606 15C4.81487 14.9906 0 14.8335 0 12.2157C0 9.58011 4.98771 9.42197 7.12717 9.41249L7.38421 9.4119C7.42427 9.41188 7.46289 9.41188 7.5 9.41188ZM7.5 10.5926C4.75468 10.5926 1.48182 10.8736 1.48182 12.2157C1.48182 13.2799 3.50698 13.8199 7.5 13.8199C11.493 13.8199 13.5182 13.2744 13.5182 12.1999C13.5182 11.1334 11.493 10.5926 7.5 10.5926ZM7.5 0C10.2967 0 12.5728 1.81358 12.5728 4.04198C12.5787 5.11565 12.0561 6.12949 11.1038 6.89302C10.1535 7.65734 8.88402 8.08003 7.53359 8.08397H7.5C4.70232 8.08397 2.42624 6.27039 2.42624 4.04198C2.42624 1.81358 4.70232 0 7.5 0ZM7.5 1.18072C5.5193 1.18072 3.90806 2.46455 3.90806 4.04198C3.90806 5.61942 5.5193 6.90325 7.5 6.90325H7.53062C8.48294 6.9001 9.37994 6.60178 10.0527 6.06101C10.7264 5.52181 11.0949 4.80473 11.091 4.04435C11.091 2.46455 9.47972 1.18072 7.5 1.18072Z" fill="white" fill-opacity="0.3"/>
</svg>
